<svg width="40" height="40" viewBox="0 0 40 40" fill="none" xmlns="http://www.w3.org/2000/svg">
<path d="M20.5029 12.5202C23.9296 12.6167 27.3582 12.5892 30.783 12.7339C32.7789 12.818 34.7695 13.0316 36.7622 13.1963C37.0282 13.2184 37.2981 13.2687 37.5519 13.3548C38.5546 13.6952 39.0331 14.3286 38.9982 15.5118C38.953 17.0445 38.8575 18.5813 38.6709 20.1009C38.5856 20.7955 38.2821 21.4805 37.9838 22.1194C37.6364 22.863 37.0579 23.3936 36.3386 23.7513C34.5836 24.6237 32.7266 25.1502 30.8521 25.6161C27.5106 26.4472 24.1381 27.0847 20.7237 27.463C19.6499 27.5822 18.6 27.3872 17.5482 27.2459C14.432 26.8276 11.3514 26.1991 8.30241 25.399C6.86186 25.0207 5.45036 24.5514 4.06986 23.956C2.54666 23.2992 1.70855 22.0704 1.3857 20.433C1.05316 18.7467 0.967931 17.0224 1.0099 15.3016C1.03702 14.1811 1.60653 13.5043 2.67193 13.3017C3.45193 13.1529 4.24937 13.1012 5.04164 13.0302C10.1866 12.5712 15.3418 12.4451 20.5029 12.5202ZM20.0489 13.0998C15.2088 13.0984 10.3764 13.2363 5.55238 13.6498C4.89958 13.7056 4.24162 13.7435 3.59786 13.8641C2.60994 14.0488 2.05981 14.7186 2.01461 15.7785C1.9481 17.3401 2.023 18.9031 2.32906 20.431C2.62027 21.8844 3.35185 23.0311 4.72202 23.57C5.67894 23.9463 6.63522 24.3398 7.61797 24.6217C10.8813 25.5562 14.1996 26.2005 17.5514 26.6484C18.4347 26.7663 19.3322 26.9338 20.2123 26.8793C22.6711 26.7277 25.1009 26.2887 27.5177 25.7898C29.7647 25.3253 32.0124 24.8546 34.1755 24.0331C34.7508 23.8147 35.3332 23.5845 35.8634 23.2668C36.952 22.6142 37.5351 21.5226 37.7036 20.2594C37.8921 18.8466 37.9696 17.4091 37.9896 15.9805C38.0084 14.6504 37.333 13.9165 36.0842 13.8048C34.0283 13.6201 31.9711 13.4203 29.9107 13.3403C26.6254 13.2121 23.3362 13.177 20.0489 13.1019V13.0998Z" fill="#F1F1F1"/>
<path d="M20.0489 13.0998C23.3362 13.1742 26.6247 13.2101 29.9107 13.3383C31.9711 13.4189 34.0283 13.6188 36.0842 13.8028C37.333 13.9151 38.0084 14.649 37.9896 15.9784C37.9696 17.407 37.8921 18.8446 37.7036 20.2573C37.5351 21.5205 36.952 22.6121 35.8634 23.2648C35.3332 23.5825 34.7515 23.8126 34.1755 24.0311C32.0118 24.8532 29.7647 25.3232 27.5177 25.7877C25.1009 26.2874 22.6711 26.7257 20.2123 26.8773C19.3322 26.9317 18.4347 26.7643 17.5514 26.6464C14.2002 26.1992 10.8813 25.5541 7.61797 24.6196C6.63522 24.3385 5.67894 23.9443 4.72202 23.568C3.35185 23.0291 2.62027 21.8823 2.32906 20.4289C2.023 18.9011 1.94745 17.3381 2.01461 15.7765C2.0598 14.7166 2.60994 14.0467 3.59786 13.862C4.24162 13.7414 4.89958 13.7035 5.55238 13.6477C10.3764 13.2342 15.2094 13.0957 20.0489 13.0978L20.0489 13.0998ZM11.2946 17.5145C11.5315 17.5145 11.7104 17.5145 11.8893 17.5145C14.0601 17.5152 16.2309 17.5145 18.4018 17.5193C18.6058 17.5193 18.8395 17.5193 18.8841 17.8067C18.9287 18.0934 18.8363 18.3463 18.5645 18.4456C18.3656 18.5186 18.1474 18.56 17.9375 18.5606C16.5512 18.5662 15.1649 18.5627 13.7786 18.5476C13.5287 18.5448 13.4202 18.6323 13.3589 18.8921C13.1361 19.8369 12.8894 20.7749 12.6551 21.7162C12.5873 21.9885 12.5285 22.2627 12.4652 22.535C12.5298 22.5618 12.5595 22.5846 12.5885 22.5853C14.5876 22.5866 16.5861 22.6025 18.5845 22.5777C19.3103 22.5687 19.7622 22.1449 19.954 21.3999C20.0535 21.014 20.118 20.6177 20.1884 20.2242C20.2588 19.8328 20.3369 19.4324 19.8759 19.2725C20.0179 19.0548 20.1916 18.8887 20.2465 18.6861C20.415 18.0589 20.5532 17.4215 20.6733 16.782C20.7521 16.3616 20.5519 16.068 20.1587 15.9701C20.0141 15.9343 19.8604 15.9295 19.7112 15.9288C18.6581 15.9253 17.605 15.926 16.5518 15.926C15.0364 15.926 13.5216 15.9226 12.0061 15.9322C11.886 15.9329 11.6859 15.9936 11.6607 16.0749C11.5206 16.5263 11.4224 16.9921 11.2952 17.5138L11.2946 17.5145ZM26.2741 19.97C26.2631 20.6577 25.9396 21.0216 25.3508 21.0257C24.3945 21.0326 23.4382 21.0319 22.4819 21.0285C21.9066 21.0264 21.7342 20.788 21.873 20.1801C22.008 19.5902 22.1571 19.0038 22.3024 18.4166C22.4897 17.6579 22.664 17.5145 23.4066 17.5138C24.9646 17.5138 26.5221 17.5166 28.0801 17.5125C28.1899 17.5125 28.3823 17.4835 28.3965 17.4277C28.483 17.0838 28.6122 16.7151 28.5663 16.3795C28.516 16.0087 28.1518 15.9136 27.8244 15.9136C26.0843 15.9102 24.3435 15.904 22.6033 15.9233C21.7265 15.9329 21.3423 16.2706 21.1014 17.1734C20.9723 17.6579 20.8896 18.1568 20.7437 18.6351C20.6449 18.959 20.4816 19.2519 20.7276 19.5799C20.7728 19.6405 20.7773 19.7632 20.7592 19.8459C20.5997 20.5578 20.4686 21.2807 20.2465 21.9705C20.1451 22.2848 20.2355 22.3978 20.4447 22.4998C20.5571 22.5549 20.6953 22.5694 20.8218 22.5694C22.5943 22.5756 24.3674 22.5825 26.1398 22.5749C26.7719 22.5722 27.2194 22.2173 27.4344 21.5805C27.5216 21.3227 27.5849 21.0547 27.6462 20.788C27.8096 20.0788 27.9658 19.3683 28.124 18.6626C28.062 18.6282 28.0349 18.5999 28.0072 18.5999C27.1587 18.5979 26.3103 18.5958 25.4618 18.6034C25.4005 18.6034 25.2997 18.6585 25.2849 18.7102C25.1719 19.1078 25.0757 19.5117 24.9595 19.97H26.2741Z" fill="black"/>
<path d="M11.2946 17.5145C11.4218 16.9928 11.5193 16.5263 11.66 16.0756C11.6852 15.9942 11.886 15.9336 12.0055 15.9329C13.5209 15.9233 15.0357 15.926 16.5512 15.9267C17.6043 15.9267 18.6575 15.926 19.7106 15.9295C19.8604 15.9295 20.0141 15.935 20.1581 15.9708C20.5513 16.0687 20.7521 16.3622 20.6727 16.7826C20.5526 17.4222 20.4144 18.0603 20.2459 18.6867C20.1916 18.8894 20.0173 19.0554 19.8752 19.2732C20.3356 19.4331 20.2581 19.8335 20.1878 20.2249C20.1174 20.6184 20.0528 21.0147 19.9534 21.4006C19.7616 22.1456 19.3096 22.5694 18.5839 22.5784C16.5854 22.6032 14.5863 22.5873 12.5879 22.5859C12.5588 22.5859 12.5298 22.5632 12.4646 22.5356C12.5272 22.2634 12.5866 21.9891 12.6544 21.7169C12.8894 20.7755 13.1361 19.8369 13.3582 18.8928C13.4196 18.6323 13.528 18.5455 13.7779 18.5482C15.1642 18.5634 16.5505 18.5668 17.9369 18.5613C18.1467 18.5606 18.3656 18.5186 18.5638 18.4462C18.8363 18.3463 18.928 18.0941 18.8835 17.8074C18.8389 17.5207 18.6052 17.5207 18.4011 17.52C16.2303 17.5159 14.0594 17.5159 11.8886 17.5152C11.7098 17.5152 11.5315 17.5152 11.2939 17.5152L11.2946 17.5145ZM14.3849 20.9382C14.4895 20.9582 14.5405 20.9761 14.5921 20.9761C15.686 20.985 16.7791 20.9961 17.8729 20.9954C18.0189 20.9954 18.1803 20.9671 18.3068 20.8961C18.5451 20.7625 18.6678 20.5178 18.6129 20.2366C18.5613 19.9713 18.332 19.9596 18.1202 19.9603C17.0477 19.9644 15.9759 19.9637 14.9034 19.9803C14.8014 19.9816 14.6464 20.0637 14.6089 20.1526C14.5101 20.3876 14.463 20.6474 14.3842 20.9368L14.3849 20.9382Z" fill="#F1F1F1"/>
<path d="M26.2741 19.97H24.9595C25.0757 19.511 25.1719 19.1078 25.2849 18.7102C25.2997 18.6585 25.4005 18.6041 25.4618 18.6034C26.3103 18.5965 27.1587 18.5979 28.0072 18.5999C28.0349 18.5999 28.062 18.6282 28.124 18.6626C27.9658 19.3683 27.8096 20.0788 27.6462 20.788C27.5849 21.0547 27.5216 21.3227 27.4344 21.5805C27.2194 22.2173 26.7719 22.5722 26.1398 22.5749C24.3674 22.5825 22.5943 22.5756 20.8218 22.5694C20.6953 22.5694 20.5571 22.5543 20.4447 22.4998C20.2355 22.3978 20.1451 22.2848 20.2465 21.9705C20.4686 21.2807 20.5997 20.5578 20.7592 19.8459C20.7779 19.7625 20.7734 19.6398 20.7276 19.5799C20.4816 19.2525 20.6449 18.959 20.7437 18.6351C20.8896 18.1568 20.9729 17.6579 21.1014 17.1734C21.3416 16.2706 21.7265 15.9329 22.6033 15.9233C24.3435 15.904 26.0843 15.9102 27.8244 15.9136C28.1518 15.9136 28.516 16.0087 28.5663 16.3795C28.6115 16.7151 28.4824 17.0831 28.3965 17.4277C28.3823 17.4835 28.1899 17.5125 28.0801 17.5125C26.5221 17.5173 24.9646 17.5131 23.4066 17.5138C22.664 17.5138 22.4897 17.6579 22.3024 18.4166C22.1571 19.0038 22.008 19.5902 21.873 20.1801C21.7342 20.788 21.9066 21.0257 22.4819 21.0285C23.4382 21.0326 24.3945 21.0326 25.3508 21.0257C25.9396 21.0216 26.2631 20.6577 26.2741 19.97Z" fill="#F1F1F1"/>
<path d="M14.3849 20.9382C14.4637 20.6487 14.5108 20.3897 14.6096 20.154C14.647 20.0651 14.8013 19.9831 14.904 19.9817C15.9759 19.9652 17.0484 19.9659 18.1209 19.9617C18.3327 19.961 18.5619 19.9727 18.6135 20.2381C18.6678 20.5192 18.5457 20.7639 18.3075 20.8976C18.1809 20.9686 18.0195 20.9968 17.8736 20.9968C16.7798 20.9968 15.686 20.9865 14.5928 20.9775C14.5418 20.9775 14.4901 20.9589 14.3855 20.9396L14.3849 20.9382Z" fill="black"/>
</svg>
