<svg width="120" height="120" viewBox="0 0 120 120" fill="none" xmlns="http://www.w3.org/2000/svg">
<path d="M59.9929 79.4169C58.284 79.4169 56.5743 79.4567 54.8664 79.4062C52.9736 79.3501 51.0805 79.247 49.1921 79.0997C47.0961 78.9366 45.0008 78.7392 42.9121 78.4889C37.2886 77.8147 31.7195 76.7895 26.2476 75.2048C22.1831 74.0277 18.2049 72.5787 14.4592 70.4635C12.1739 69.1729 10.0143 67.6777 8.26366 65.5796C7.23375 64.3455 6.4403 62.9666 6.12709 61.3039C5.74334 59.2655 6.25647 57.4468 7.29113 55.7705C8.50962 53.7962 10.1809 52.3448 11.9995 51.0833C15.2102 48.8554 18.714 47.3336 22.3176 46.0569C25.9676 44.7639 29.6936 43.7961 33.4631 43.0308C35.4933 42.6189 37.5363 42.2727 39.5815 41.9607C41.2916 41.6996 43.0115 41.5074 44.7311 41.3283C46.6725 41.1261 48.6172 40.9538 50.5626 40.8046C51.7518 40.7134 52.9451 40.68 54.1373 40.6406C55.9387 40.5813 57.7405 40.5037 59.5419 40.5001C61.3671 40.4965 63.1923 40.5694 65.0175 40.6171C65.7894 40.6374 66.5612 40.6653 67.3317 40.7138C69.1748 40.8304 71.0186 40.9411 72.8591 41.0923C74.4423 41.2224 76.0289 41.3502 77.6022 41.5766C80.2987 41.9642 82.9933 42.3797 85.6752 42.8708C89.2952 43.5342 92.8659 44.4511 96.381 45.6104C99.6001 46.6722 102.745 47.9401 105.728 49.649C107.883 50.8835 109.915 52.3078 111.595 54.2551C112.685 55.5178 113.53 56.9382 113.866 58.6633C114.229 60.5214 113.831 62.2259 112.948 63.815C111.852 65.7877 110.279 67.2455 108.551 68.5214C105.859 70.5088 102.911 71.93 99.8677 73.1318C95.8595 74.7145 91.7454 75.881 87.5592 76.7394C85.2425 77.2146 82.9148 77.632 80.5841 78.0193C79.1314 78.2608 77.6647 78.4105 76.2021 78.578C74.7621 78.7428 73.3203 78.8876 71.8778 79.0229C71.0749 79.0981 70.269 79.1495 69.4638 79.1865C67.1149 79.2943 64.766 79.3986 62.4168 79.4854C61.6098 79.5152 60.801 79.4901 59.9929 79.4901C59.9929 79.4659 59.9929 79.4416 59.9929 79.4169ZM59.9893 73.2086C61.7801 73.2086 63.5706 73.2166 65.3614 73.2047C66.0393 73.2003 66.7177 73.1601 67.3949 73.1171C68.7826 73.0296 70.1703 72.9368 71.5573 72.8318C72.5009 72.7601 73.4442 72.6777 74.3857 72.5759C75.5936 72.4453 76.7989 72.2873 78.0061 72.1473C78.9041 72.043 79.7918 71.8934 80.6203 71.4763C82.0599 70.7516 82.5021 69.5712 81.9167 67.973C81.466 66.7429 80.7044 65.742 79.859 64.8143C75.3041 59.8147 70.5164 55.0968 65.4447 50.7231C64.3509 49.7799 63.2475 48.8582 61.9365 48.2864C61.1095 47.9258 60.2616 47.7149 59.368 47.8844C57.8973 48.1634 56.6499 48.9621 55.4939 49.9355C52.4835 52.4702 49.5568 55.1183 46.7646 57.9327C44.4201 60.2958 42.1326 62.727 39.852 65.1637C38.9968 66.0775 38.2896 67.1329 37.9512 68.4199C37.6372 69.6138 37.9643 70.557 38.9336 71.2053C39.2296 71.4035 39.5523 71.6012 39.886 71.6765C40.9349 71.9129 41.9889 72.1508 43.0525 72.279C45.1061 72.5261 47.1655 72.7275 49.226 72.893C51.0326 73.0379 52.8432 73.1466 54.6534 73.1987C56.4307 73.2492 58.2105 73.209 59.9893 73.2086ZM58.7017 43.3547C58.6114 43.3444 58.5212 43.3233 58.4313 43.3249C56.8513 43.3536 55.2714 43.381 53.6914 43.418C53.1772 43.43 52.6626 43.4582 52.1495 43.4972C50.2965 43.6385 48.4432 43.7762 46.5917 43.9382C45.2998 44.0512 44.0052 44.157 42.7217 44.3453C40.3966 44.6863 38.0736 45.0525 35.759 45.4707C32.1006 46.1318 28.4971 47.0574 24.9717 48.3174C22.5223 49.1929 20.1292 50.2189 17.9074 51.6651C16.3593 52.6731 14.9084 53.8141 13.9124 55.4979C12.8325 57.3234 12.812 59.1763 13.8722 61.0304C14.3477 61.8618 14.9577 62.5626 15.6419 63.1894C17.2419 64.6567 19.0521 65.7527 20.9771 66.6052C22.8636 67.4405 24.7864 67.3935 26.6931 66.6084C27.7489 66.1738 28.6239 65.4228 29.5248 64.7148C36.4816 59.2491 43.4355 53.7787 50.4007 48.3254C52.9733 46.3108 55.5466 44.2852 58.7017 43.3547ZM61.2662 43.3623C62.0359 43.6556 62.7687 43.8809 63.4606 44.2096C65.2269 45.0485 66.8481 46.1735 68.4065 47.3937C76.0723 53.397 83.7283 59.4159 91.3835 65.4347C93.5084 67.1054 95.8496 67.6729 98.3542 66.8336C99.58 66.4229 100.737 65.7253 101.874 65.0535C103.33 64.1923 104.661 63.1253 105.704 61.6923C107.297 59.5027 107.334 57.1121 105.714 54.9547C105.099 54.1353 104.363 53.3931 103.585 52.7543C101.416 50.9726 98.9375 49.8257 96.3986 48.8308C93.1601 47.5617 89.8387 46.6165 86.4588 45.9252C84.384 45.501 82.2989 45.1309 80.2124 44.7787C78.8752 44.553 77.5288 44.3867 76.1835 44.2259C74.7797 44.0584 73.3737 43.9103 71.9659 43.7905C70.7083 43.6835 69.4478 43.6043 68.1869 43.5517C65.9783 43.4598 63.7687 43.3969 61.5594 43.3245C61.4713 43.3225 61.3832 43.3468 61.2662 43.3623Z" fill="#4F5052"/>
</svg>
