<svg width="120" height="120" viewBox="0 0 120 120" fill="none" xmlns="http://www.w3.org/2000/svg">
<path d="M14.2366 67.4608C11.5926 67.4608 8.95064 67.4608 6.3066 67.4608C4.1655 67.4474 3.03235 66.2456 3.01356 63.9316C2.99548 61.3222 2.99548 58.7113 3.01356 56.0989C3.03652 53.843 4.12794 52.5764 6.2127 52.5607C11.7074 52.5182 17.202 52.5607 22.6988 52.5227C23.7735 52.5227 23.6191 53.2142 23.6316 53.9258C23.6441 54.6375 23.6128 55.1768 22.6549 55.1656C17.9262 55.1142 13.1953 55.1388 8.4644 55.1477C7.09752 55.1477 6.49025 55.6356 6.3546 56.768C6.14592 58.4666 6.2753 58.6232 7.878 58.6232C12.3647 58.6232 16.8514 58.6523 21.3361 58.5941C22.2772 58.5807 22.4337 58.9612 22.4087 59.8272C22.3857 60.6351 22.4254 61.2282 21.3528 61.2148C16.8306 61.1566 12.3105 61.1767 7.78826 61.2148C7.2269 61.2148 6.3859 60.8119 6.32747 62.0338C6.23774 63.7078 6.61128 64.6052 7.63592 64.8178C8.0145 64.8765 8.39746 64.896 8.77951 64.876C13.2996 64.876 17.8218 64.9051 22.344 64.8559C23.3123 64.8559 23.6691 65.0796 23.6608 66.1986C23.6483 67.2706 23.2956 67.4944 22.3732 67.4944C19.6624 67.425 16.9495 67.463 14.2366 67.4608Z" fill="#D88B55"/>
<path d="M84.7719 67.4586C82.0945 67.4586 79.4171 67.4586 76.7397 67.4586C74.7718 67.4586 73.6094 66.2568 73.5844 64.1531C73.5468 61.3557 73.551 58.5583 73.5844 55.7632C73.6052 53.9863 74.6027 52.8539 76.243 52.6301C76.6583 52.5736 77.0765 52.5452 77.4951 52.545C82.6705 52.5316 87.8521 52.5674 93.0317 52.5003C94.0751 52.4869 94.2003 52.9479 94.2274 53.8833C94.2566 54.8725 93.9666 55.1656 93.0505 55.1567C88.3905 55.1119 83.7306 55.1254 79.0686 55.1343C77.4137 55.1343 76.8858 55.7654 76.8503 57.4864C76.8315 58.3815 77.155 58.6389 77.9521 58.63C81.0469 58.5964 84.1417 58.6188 87.2365 58.6188H91.6189C92.9211 58.6188 92.871 58.6188 92.9169 60.0533C92.9482 60.9663 92.6268 61.1991 91.8317 61.1946C87.416 61.1655 83.0002 61.1789 78.5845 61.1789C76.8816 61.1789 76.4037 61.9756 77.0151 63.7347C77.3845 64.7954 78.1921 64.8738 79.0582 64.8738L92.5267 64.8693C92.8042 64.8693 93.0818 64.8827 93.3614 64.8693C94.4841 64.829 94.1398 65.7286 94.1961 66.3687C94.2629 67.0557 94.1419 67.4876 93.328 67.4876C90.4774 67.4474 87.6267 67.472 84.7719 67.472V67.4586Z" fill="#D88B55"/>
<path d="M69.9157 58.6277C70.2496 61.1879 70.2496 61.1857 68.073 61.1857C63.8659 61.1857 59.6609 61.1745 55.456 61.2036C54.9175 61.2036 54.1287 60.8231 53.9952 61.9242C53.8157 63.4303 54.2581 64.5627 55.2201 64.7775C55.7718 64.8738 56.3312 64.9091 56.8896 64.8827C61.272 64.8827 65.6544 64.8827 70.0263 64.8827C71.22 64.8827 71.8439 65.9748 71.2367 67.1005C71.0969 67.3601 70.5313 67.4541 70.1599 67.4563C65.3977 67.4765 60.6376 67.4563 55.8754 67.4563C55.1805 67.4563 54.4856 67.472 53.7886 67.4563C51.9647 67.4093 50.8169 66.2926 50.7793 64.3546C50.7209 61.4117 50.7272 58.4643 50.7793 55.5215C50.8086 53.9057 51.8061 52.836 53.3169 52.6346C53.9406 52.5619 54.5678 52.5298 55.1951 52.5383C60.1562 52.5309 65.1229 52.5279 70.0952 52.5294C70.3446 52.5268 70.5899 52.5981 70.804 52.7355C71.0181 52.873 71.1926 53.0711 71.3083 53.3082C71.424 53.5452 71.4764 53.8119 71.4597 54.0789C71.443 54.3458 71.3579 54.6027 71.2137 54.821C71.0593 55.0627 70.5522 55.1276 70.2058 55.1298C65.5479 55.15 60.8901 55.1298 56.2239 55.1455C54.5816 55.1455 53.9931 55.8169 53.968 57.4707C53.9534 58.339 54.2393 58.6434 55.0595 58.6367C59.6129 58.6076 64.1644 58.6255 68.7178 58.6367L69.9157 58.6277Z" fill="#D88B55"/>
<path d="M105.674 67.4586C102.93 67.4586 100.181 67.4317 97.437 67.4787C96.6023 67.4921 96.3664 67.1967 96.3727 66.3239C96.4089 62.1122 96.4089 57.9004 96.3727 53.6886C96.3727 52.8472 96.5689 52.5092 97.4161 52.516C102.823 52.554 108.209 52.5227 113.604 52.545C115.866 52.545 116.98 53.7871 116.991 56.2152C116.991 58.8247 117.012 61.4341 116.991 64.048C116.97 66.2277 115.839 67.4406 113.823 67.4563C111.1 67.4742 108.387 67.4586 105.674 67.4586ZM106.227 64.8693V64.8849C108.034 64.8849 109.841 64.8984 111.653 64.8849C113.128 64.8693 113.656 64.2941 113.666 62.7074C113.679 60.9552 113.677 59.2051 113.666 57.4528C113.666 55.743 113.141 55.1634 111.546 55.1567C107.934 55.1388 104.322 55.1567 100.707 55.1343C99.9621 55.1343 99.6428 55.3581 99.6637 56.2063C99.6998 58.7426 99.6998 61.2789 99.6637 63.8152C99.6511 64.6656 99.9683 64.9096 100.707 64.8939C102.544 64.8447 104.392 64.8693 106.233 64.8693H106.227Z" fill="#D88B55"/>
<path d="M48.0101 52.8315L39.3789 60.0197L47.9621 67.1564C46.1653 67.2974 44.3811 68.0337 42.7659 66.5276C41.2466 65.111 39.5792 63.8824 38.0204 62.515C37.3943 61.9577 36.9206 61.9935 36.3029 62.5306C34.792 63.8421 33.1852 65.0304 31.7118 66.3844C30.802 67.2191 29.8629 67.5973 28.6859 67.4787C27.943 67.4048 27.1897 67.4653 26.357 67.2057C26.91 66.729 27.4568 66.2456 28.0265 65.7801C30.0048 64.139 31.9852 62.5023 33.9677 60.8701C34.9631 60.0488 34.9611 60.004 33.9928 59.2029C31.6513 57.2708 29.3134 55.335 26.9789 53.3955C26.7429 53.205 26.5496 52.9603 26.4133 52.6793C28.1726 52.7353 29.961 51.9721 31.5783 53.5364C33.0683 54.9799 34.7628 56.1794 36.3279 57.5378C36.9665 58.0929 37.4507 58.0235 38.0579 57.4998C39.573 56.1929 41.1673 54.9889 42.649 53.6461C43.5547 52.8248 44.4854 52.3973 45.6749 52.5271C46.4157 52.6055 47.1712 52.5428 47.9204 52.5428C47.9538 52.6346 47.9809 52.7241 48.0101 52.8315Z" fill="#D88B55"/>
</svg>
