<svg width="120" height="120" viewBox="0 0 120 120" fill="none" xmlns="http://www.w3.org/2000/svg">
<path d="M36.6195 59.2194C52.438 60.3637 67.9303 60.3501 83.5036 59.2267C83.1738 63.2988 82.8374 67.12 82.5707 70.9454C82.4938 72.0493 81.9843 72.6001 80.8554 72.7582C72.7406 73.8944 64.6499 75.5283 56.393 74.8336C50.5744 74.3444 44.7897 73.4681 39.0042 72.6713C38.4948 72.6011 37.7455 71.8711 37.6931 71.3898C37.2663 67.4546 36.9785 63.5059 36.6195 59.2194Z" fill="#1C1B1A"/>
<path d="M83.8052 57.5095C67.8628 58.9213 52.2911 58.8744 36.3822 57.5196C36.3822 53.3801 36.3822 49.2271 36.3822 45C52.1285 45 68.0086 45 83.8052 45C83.8052 49.2667 83.8052 53.3266 83.8052 57.5095Z" fill="#1D5DBB"/>
<path d="M113.946 55.4897C104.42 56.1725 95.0453 56.8442 85.7072 57.5134C85.7072 53.3114 85.7072 49.3161 85.7072 45.087C86.5905 45.087 87.2231 45.0744 87.8546 45.089C94.0187 45.2294 100.183 45.3576 106.346 45.5307C107.67 45.5679 108.999 45.7128 110.309 45.9112C112.413 46.2302 113.715 47.3824 113.906 49.4123C114.091 51.3864 113.946 53.3889 113.946 55.4897Z" fill="#1C1B1A"/>
<path d="M6.05339 55.4814C6.05339 53.4935 5.91236 51.6095 6.08873 49.7529C6.3154 47.365 7.76941 46.0339 10.3509 45.8657C15.1124 45.5557 19.8822 45.3358 24.6523 45.1822C27.7823 45.0814 30.9188 45.1631 34.1978 45.1631C34.3829 49.2793 34.5655 53.3309 34.7554 57.5513C25.1771 56.8606 15.8168 56.1854 6.05339 55.4814Z" fill="#1C1B1A"/>
<path d="M84.0988 72.2025C84.469 68.0179 84.7707 64.1376 85.2102 60.2719C85.2623 59.8129 86.0393 59.1044 86.5301 59.0641C91.8211 58.6287 97.1226 58.3153 102.42 57.9456C106.14 57.686 109.857 57.3906 113.664 57.1043C113.418 62.0785 111.041 65.6627 106.237 67.1558C101.053 68.767 95.6777 69.8261 90.3692 71.0607C88.3923 71.5204 86.3676 71.7956 84.0988 72.2025Z" fill="#1D5DBB"/>
<path d="M6.48214 57.1311C14.4005 57.7061 22.2715 58.2774 30.1424 58.85C30.3228 58.8632 30.5025 58.8907 30.6825 58.9084C32.0458 59.0418 33.8099 58.7388 34.6524 59.4386C35.39 60.0516 35.1309 61.7883 35.2435 63.034C35.5106 65.9928 35.7373 68.9547 36.0044 72.2095C32.7841 71.6052 29.7318 71.0965 26.7122 70.4495C23.0776 69.6708 19.4323 68.8984 15.8607 67.9001C10.3398 66.3569 6.72192 63.1396 6.48214 57.1311Z" fill="#1D5DBB"/>
</svg>
