<svg width="120" height="120" viewBox="0 0 120 120" fill="none" xmlns="http://www.w3.org/2000/svg">
<path d="M9.9314 59.2081C12.4762 58.3486 15.0948 57.9081 17.7872 57.8865C17.8764 57.8865 17.9416 57.8441 17.9828 57.7595C19.057 55.5414 20.1973 53.3604 21.4036 51.2162C21.4808 51.0811 21.5941 51.0135 21.7434 51.0135L28.0445 51.0108C28.0629 51.0107 28.081 51.0157 28.0971 51.0253C28.1131 51.0348 28.1265 51.0486 28.1359 51.0653C28.1453 51.082 28.1503 51.1009 28.1505 51.1203C28.1507 51.1397 28.1461 51.1588 28.1371 51.1757C26.3868 54.4045 24.887 57.6171 23.6378 60.8135C22.6494 63.345 21.6516 66.0243 20.6443 68.8513C20.6117 68.9414 20.549 68.9865 20.4564 68.9865H13.9751L13.9527 68.9806L13.935 68.9646L13.9255 68.9416L13.9262 68.9162C14.6572 66.3486 15.5126 63.7666 16.4925 61.1703C16.5268 61.0766 16.4967 61.0288 16.4024 61.027C14.2763 60.9982 12.4702 61.2432 10.9842 61.7621C9.87906 62.1477 9.02621 62.8531 8.42562 63.8784C7.61224 65.2694 6.9902 66.9207 6.55949 68.8324C6.53718 68.9351 6.4754 68.9865 6.37416 68.9865H0.0782193C0.0660031 68.9868 0.053926 68.9839 0.0429781 68.9781C0.0320303 68.9724 0.0225237 68.9639 0.0152391 68.9533C0.00795458 68.9428 0.00309965 68.9305 0.0010719 68.9174C-0.000955857 68.9044 -9.83833e-05 68.891 0.00357425 68.8784C0.2747 67.9378 0.555263 66.9856 0.845264 66.0216C2.40509 60.8649 4.60155 55.9586 7.43464 51.3027C7.66115 50.9324 7.84648 51.0108 8.21198 51.0108C10.0395 51.018 11.9545 51.0144 13.9571 51C13.9721 51.0001 13.9867 51.0044 13.9996 51.0124C14.0125 51.0204 14.0232 51.0319 14.0305 51.0456C14.0378 51.0593 14.0415 51.0748 14.0413 51.0906C14.0411 51.1063 14.0369 51.1217 14.0292 51.1351C12.4813 53.7531 11.0923 56.4171 9.8619 59.127C9.82415 59.2099 9.84731 59.2369 9.9314 59.2081Z" fill="url(#paint0_linear_450_6629)"/>
<path d="M63.0351 62.1351L63.0394 62.1454L63.0481 62.1521L63.0588 62.1532L63.0686 62.1486C66.6464 58.5774 69.9763 54.9144 73.0582 51.1594C73.0962 51.1136 73.1428 51.0768 73.1947 51.0516C73.2467 51.0265 73.3028 51.0134 73.3593 51.0135L80.6952 51.0081C80.7112 51.0082 80.7269 51.0132 80.7402 51.0226C80.7536 51.0319 80.764 51.0451 80.7703 51.0606C80.7766 51.0761 80.7785 51.0932 80.7756 51.1098C80.7728 51.1264 80.7654 51.1418 80.7544 51.154L64.2783 68.8486C64.2376 68.8922 64.1888 68.9268 64.1349 68.9505C64.081 68.9741 64.023 68.9864 63.9643 68.9864H57.272C57.2205 68.9864 57.1922 68.9585 57.187 68.9026L55.9155 51.1567C55.9141 51.1384 55.9163 51.12 55.922 51.1027C55.9277 51.0854 55.9367 51.0695 55.9486 51.056C55.9604 51.0425 55.9748 51.0318 55.9909 51.0245C56.0069 51.0171 56.0242 51.0134 56.0416 51.0135H61.9154C62.0098 51.0135 62.0613 51.063 62.0699 51.1621L63.0351 62.1351Z" fill="url(#paint1_linear_450_6629)"/>
<path d="M108.08 56.581C107.501 58.7846 106.707 61.1756 105.696 63.754C105.186 65.0594 106.056 65.4837 107.112 65.4837C111.304 65.4837 115.571 65.4819 119.912 65.4783C119.929 65.4779 119.945 65.4828 119.959 65.4922C119.974 65.5016 119.985 65.5152 119.992 65.5314C119.999 65.5476 120.001 65.5657 119.999 65.5836C119.997 65.6015 119.99 65.6184 119.979 65.6324L117.382 68.8729C117.354 68.9083 117.318 68.9369 117.278 68.9565C117.238 68.9761 117.195 68.9863 117.15 68.9864C112.515 68.9792 107.85 68.9837 103.153 68.9999C102.197 69.0035 101.41 68.8936 100.79 68.6702C99.1916 68.0945 98.8827 66.5891 99.4773 65.1134C101.394 60.3477 102.872 55.6846 103.91 51.1243C103.917 51.0925 103.934 51.0642 103.959 51.0441C103.983 51.024 104.013 51.0132 104.044 51.0135L111.665 51.0081C111.89 51.0081 111.91 51.0765 111.727 51.2135C109.992 52.4999 108.664 54.3594 108.08 56.581Z" fill="url(#paint2_linear_450_6629)"/>
<path d="M41.3957 65.5026C38.8321 65.4252 36.7883 65.4783 35.2645 65.6621C33.9587 65.8207 32.7729 66.4216 31.7073 67.4648C31.298 67.8648 30.9917 68.4189 30.6339 68.8864C30.5825 68.9531 30.5155 68.9864 30.4332 68.9864H24.2736C24.2598 68.9867 24.2462 68.9828 24.2344 68.9752C24.2226 68.9676 24.2132 68.9565 24.2072 68.9434C24.2012 68.9303 24.199 68.9157 24.2007 68.9012C24.2025 68.8868 24.2081 68.8732 24.217 68.8621C25.3461 67.4027 26.4813 65.9387 27.6224 64.4702C30.3662 60.9423 33.4636 57.8351 36.9144 55.1486C38.5498 53.8747 40.0461 52.9657 41.4034 52.4216C44.5334 51.1621 48.2425 51.0027 51.6479 51.0162C51.6621 51.0159 51.6761 51.0193 51.6887 51.0262C51.7013 51.0331 51.7121 51.0431 51.72 51.0555C51.728 51.0679 51.7328 51.0821 51.7342 51.097C51.7355 51.1118 51.7333 51.1268 51.7277 51.1405C49.3682 56.9783 47.4145 62.8783 45.8667 68.8405C45.8427 68.9378 45.7826 68.9864 45.6865 68.9864H40.7419C40.615 68.9864 40.5703 68.9225 40.6081 68.7945L41.5038 65.6621C41.5347 65.5594 41.4987 65.5063 41.3957 65.5026ZM42.6595 62.1918C43.5347 59.7027 44.5154 57.3405 45.6222 54.9783C45.6685 54.8792 45.6385 54.8315 45.5321 54.8351C43.3005 54.9243 41.4729 55.854 39.7664 57.454C38.071 59.0414 36.597 60.6279 35.3443 62.2135C35.3359 62.2237 35.3304 62.2363 35.3287 62.2497C35.3269 62.2631 35.3288 62.2768 35.3343 62.2891C35.3397 62.3013 35.3484 62.3117 35.3593 62.3189C35.3702 62.3261 35.3829 62.3299 35.3958 62.3297L42.4794 62.3216C42.5187 62.3216 42.557 62.3092 42.5891 62.286C42.6213 62.2628 42.6459 62.23 42.6595 62.1918Z" fill="url(#paint3_linear_450_6629)"/>
<path d="M88.8391 65.508C87.1986 65.4504 85.5985 65.4711 84.0386 65.5702C82.4067 65.6729 80.9705 66.1522 79.7298 67.008C79.0374 67.4864 78.5252 68.2026 77.9898 68.8675C77.9599 68.9048 77.9227 68.9347 77.8809 68.9553C77.8391 68.9758 77.7937 68.9864 77.7478 68.9864L71.6784 68.9891C71.3575 68.9891 71.3301 68.8945 71.5961 68.7053C71.7419 68.6026 71.8843 68.481 72.0233 68.3405C75.8139 64.5062 79.4716 60.7315 82.9962 57.0161C85.1069 54.7891 87.2638 52.827 90.1004 51.9729C92.9395 51.1189 95.8094 51.0675 98.8184 51.0053C98.8888 51.0035 98.9136 51.0387 98.8931 51.1107C97.2303 57.0891 95.2646 63.0188 92.9961 68.8999C92.9863 68.9253 92.9691 68.9472 92.9466 68.9626C92.9242 68.978 92.8975 68.9863 92.8699 68.9864H87.6345C87.6195 68.9865 87.6048 68.9827 87.5917 68.9751C87.5785 68.9676 87.5674 68.9566 87.5592 68.9432C87.551 68.9298 87.5461 68.9144 87.5449 68.8983C87.5436 68.8823 87.5461 68.8661 87.5521 68.8513L88.8932 65.5972C88.8969 65.5876 88.8983 65.5772 88.8975 65.5669C88.8966 65.5566 88.8933 65.5467 88.888 65.538C88.8828 65.5293 88.8756 65.522 88.867 65.5168C88.8585 65.5116 88.849 65.5086 88.8391 65.508ZM90.3063 62.081L92.7438 55.008C92.7867 54.8837 92.7447 54.827 92.6177 54.8378C90.6323 55.0035 88.9103 55.8549 87.4517 57.3918C85.8902 59.0351 84.393 60.6495 82.9601 62.2351C82.8881 62.3143 82.9044 62.3531 83.0091 62.3513C85.2656 62.3098 87.577 62.3071 89.9433 62.3432C90.1252 62.3468 90.2462 62.2594 90.3063 62.081Z" fill="url(#paint4_linear_450_6629)"/>
<defs>
<linearGradient id="paint0_linear_450_6629" x1="60" y1="69" x2="60" y2="51" gradientUnits="userSpaceOnUse">
<stop offset="0.0658188" stop-color="#5A5F65"/>
<stop offset="0.281813" stop-color="#4C4F56"/>
<stop offset="1" stop-color="#8A929C"/>
</linearGradient>
<linearGradient id="paint1_linear_450_6629" x1="60" y1="69" x2="60" y2="51" gradientUnits="userSpaceOnUse">
<stop offset="0.0658188" stop-color="#5A5F65"/>
<stop offset="0.281813" stop-color="#4C4F56"/>
<stop offset="1" stop-color="#8A929C"/>
</linearGradient>
<linearGradient id="paint2_linear_450_6629" x1="60" y1="69" x2="60" y2="51" gradientUnits="userSpaceOnUse">
<stop offset="0.0658188" stop-color="#5A5F65"/>
<stop offset="0.281813" stop-color="#4C4F56"/>
<stop offset="1" stop-color="#8A929C"/>
</linearGradient>
<linearGradient id="paint3_linear_450_6629" x1="60" y1="69" x2="60" y2="51" gradientUnits="userSpaceOnUse">
<stop offset="0.0658188" stop-color="#5A5F65"/>
<stop offset="0.281813" stop-color="#4C4F56"/>
<stop offset="1" stop-color="#8A929C"/>
</linearGradient>
<linearGradient id="paint4_linear_450_6629" x1="60" y1="69" x2="60" y2="51" gradientUnits="userSpaceOnUse">
<stop offset="0.0658188" stop-color="#5A5F65"/>
<stop offset="0.281813" stop-color="#4C4F56"/>
<stop offset="1" stop-color="#8A929C"/>
</linearGradient>
</defs>
</svg>
