<svg width="120" height="120" viewBox="0 0 120 120" fill="none" xmlns="http://www.w3.org/2000/svg">
<path d="M114 39C110.023 41.2153 106.053 43.446 102.066 45.646C96.9623 48.4693 91.8424 51.2798 86.7062 54.0776C86.3041 54.2989 85.9123 54.543 85.3065 54.9042L93.5883 57.0585L60.1624 81L26.5071 57.0585L34.8868 54.8915C34.3017 54.5634 33.9253 54.3446 33.5413 54.1284C24.7449 49.3434 15.9477 44.5549 7.14959 39.763C6.75007 39.5341 6.38148 39.2543 6 39H21.9422C22.1722 39.1024 22.408 39.1916 22.6485 39.2671C34.8335 42.3107 47.0211 45.3417 59.2113 48.3599C59.9515 48.5138 60.7181 48.4929 61.4486 48.2989C70.159 46.1437 78.8609 43.964 87.5542 41.7596C91.0597 40.872 94.5574 39.9207 98.0603 39H114ZM41.39 58.0911C41.5352 58.2267 41.6903 58.3517 41.8539 58.465C47.7334 61.5782 53.6076 64.699 59.5128 67.7639C59.8917 67.9597 60.5825 67.8758 60.9898 67.6621C66.6604 64.6965 72.3027 61.6876 77.9502 58.6812C78.2079 58.5388 78.4528 58.3404 78.8111 58.0937L69.8953 55.2043L102.916 41.7571L102.821 41.2611C99.911 41.5358 96.8721 41.3756 94.1141 42.1666C83.1105 45.3205 72.2048 48.7796 61.2398 52.0861C60.5605 52.2856 59.8382 52.2935 59.1546 52.1089C50.1073 49.4112 41.0721 46.6795 32.0489 43.9139C27.4763 42.515 22.9578 40.8771 18.0295 41.5282C17.7382 41.5663 17.4444 41.5918 16.867 41.6554L50.3599 55.2069L41.39 58.0911Z" fill="url(#paint0_angular_450_6691)"/>
<defs>
<radialGradient id="paint0_angular_450_6691" cx="0" cy="0" r="1" gradientUnits="userSpaceOnUse" gradientTransform="translate(60 67.3043) rotate(-90) scale(32.8696 84.5217)">
<stop offset="0.0658188" stop-color="#5A5F65"/>
<stop offset="0.209887" stop-color="#484A51"/>
<stop offset="0.640194" stop-color="#4C4F56"/>
<stop offset="1" stop-color="#8A929C"/>
</radialGradient>
</defs>
</svg>
