<svg width="120" height="120" viewBox="0 0 120 120" fill="none" xmlns="http://www.w3.org/2000/svg">
<path d="M59.9301 80.9062C56.2899 80.9062 52.6112 80.7358 48.9997 80.4273C44.5675 80.0486 40.1807 79.1879 35.7693 78.569C28.8422 77.597 22.3144 75.4205 16.1964 72.2286C12.0864 70.0845 8.26121 67.4275 6.58016 62.9512C5.57854 60.284 5.87097 57.6016 7.4799 55.1026C9.79689 51.5031 13.2227 49.1361 17.0246 47.2691C25.0341 43.3355 33.6319 41.3774 42.5078 40.1649C51.1923 38.9784 59.8779 38.7442 68.5922 39.2546C75.7567 39.6743 82.8452 40.6605 89.8049 42.4705C94.5326 43.7002 99.1483 45.2068 103.436 47.4486C107.414 49.5288 111.162 51.9914 113.106 56.2008C114.417 59.0397 114.287 61.8321 112.711 64.5625C110.613 68.1979 107.219 70.4448 103.568 72.3784C98.1905 75.2275 92.4067 77.0834 86.422 78.2656C82.2382 79.092 77.9892 79.6874 73.7397 80.1142C69.1546 80.5746 64.5349 80.7182 59.9301 81C59.9248 80.83 59.9355 81.0763 59.9301 80.9062ZM78.1301 42.8006C78.2626 43.4157 78.2946 43.6826 78.3779 43.9339C79.5505 47.4716 78.5929 50.7196 76.5153 53.589C74.914 55.8008 72.9854 57.8443 70.9434 59.6996C67.6624 62.6807 63.7174 64.7663 59.421 66.0181C56.3267 66.9196 53.0928 67.5806 49.8764 67.8446C45.2393 68.2251 40.5613 68.1477 35.9009 68.2678C34.929 68.2929 34.7708 67.7763 35.082 67.0521C35.3635 66.397 35.7833 65.7973 36.0727 65.1447C37.2556 62.474 38.3571 59.769 39.5894 57.1199C41.7694 52.434 44.0252 47.7806 46.2359 43.1077C46.3251 42.9191 46.2754 42.6694 46.2982 42.3388C43.2532 42.8122 40.316 43.0856 37.4806 43.7574C34.1612 44.5439 30.917 45.637 27.6652 46.6702C23.5144 47.9892 19.7384 49.9852 16.5388 52.8691C14.489 54.7166 12.9827 56.9158 12.9218 59.7404C12.8416 63.4602 15.064 66.0232 17.8488 68.1776C21.4385 70.9549 25.6125 72.6904 29.9297 74.1671C31.3132 74.6402 31.9823 74.4521 32.3477 73.0567C32.5503 72.2834 33.1972 71.9973 34.0995 72.1155C36.3525 72.4108 38.6136 72.7752 40.8787 72.83C45.4908 72.9412 50.1172 73.04 54.7203 72.8159C58.7338 72.6205 62.7736 72.3865 66.6322 70.9671C69.6718 69.8489 71.2016 67.5752 70.6546 64.4813C70.5584 63.9366 70.466 63.1841 70.7616 62.8184C72.0323 61.2462 73.646 59.8786 75.755 59.742C78.2098 59.583 80.696 59.8505 83.1668 59.9711C83.487 59.9868 83.9571 60.1517 84.0798 60.3833C84.5423 61.2575 83.4449 62.9126 82.4012 63.1231C81.1712 63.3711 79.9594 63.702 78.4969 64.0559C82.7439 67.5312 84.8232 71.2184 81.1569 76.1657C81.8952 76.1126 82.369 76.1641 82.7812 76.0354C86.7947 74.7817 90.8733 73.6775 94.7815 72.1682C98.1431 70.8699 101.201 68.9657 103.726 66.366C107.804 62.1679 107.454 56.8907 103.339 52.8119C99.8331 49.3358 95.3619 47.3247 90.699 45.7293C88.2585 44.8945 85.7423 44.2456 83.2274 43.6373C81.6334 43.2519 79.979 43.0953 78.1301 42.8006ZM40.8753 63.9091C41.6201 63.6559 41.9577 63.556 42.2833 63.4281C45.1262 62.3118 47.5392 60.6 49.5236 58.3725C52.5779 54.9442 55.3989 51.3633 56.6982 46.9134C57.1414 45.3957 56.8007 44.2214 55.7048 43.4276C54.864 42.8184 51.5249 42.3563 50.8597 42.7768C50.7147 42.8686 50.6097 43.044 50.5294 43.2011C50.038 44.1631 49.5351 45.1204 49.0799 46.0983C47.3598 49.7938 45.6541 53.4956 43.9484 57.1973C42.9776 59.3037 42.017 61.4143 40.8753 63.9091Z" fill="url(#paint0_linear_450_6699)"/>
<defs>
<linearGradient id="paint0_linear_450_6699" x1="60" y1="82.5" x2="60" y2="36" gradientUnits="userSpaceOnUse">
<stop offset="0.0658188" stop-color="#5A5F65"/>
<stop offset="1" stop-color="#8A929C"/>
</linearGradient>
</defs>
</svg>
