<svg width="40" height="40" viewBox="0 0 40 40" fill="none" xmlns="http://www.w3.org/2000/svg">
<path fill-rule="evenodd" clip-rule="evenodd" d="M20.3209 5.90081L22.5973 10.7832C22.9181 11.471 22.9181 12.2661 22.5973 12.9524L16.5276 25.9664C16.4008 26.2391 16.0143 26.2391 15.8875 25.9664L13.9809 21.8776C13.4263 20.6873 13.4263 19.3131 13.9809 18.1228L19.6808 5.90081C19.8076 5.62812 20.1941 5.62812 20.3209 5.90081ZM17.4028 27.0482L23.4725 14.0342C23.5993 13.7615 23.9858 13.7615 24.1126 14.0342L26.0192 18.123C26.5737 19.3133 26.5737 20.6875 26.0192 21.8778L20.3193 34.0998C20.1925 34.3724 19.8059 34.3724 19.6792 34.0998L17.4028 29.2174C17.082 28.5311 17.082 27.736 17.4028 27.0482Z" fill="black"/>
</svg>
