<svg width="120" height="120" viewBox="0 0 120 120" fill="none" xmlns="http://www.w3.org/2000/svg">
<path d="M89.828 39.5455C89.828 40.7529 89.8224 41.8659 89.8288 42.9789C89.894 54.2727 90.0338 65.5669 89.9925 76.8602C89.9754 81.515 89.5854 86.1691 89.3301 90.8214C89.2678 91.9558 89.0954 93.0864 88.9239 94.2102C88.7158 95.5742 87.9302 96.4958 86.6882 96.7561C84.4345 97.2286 82.1661 97.6684 79.8848 97.9356C68.8665 99.2259 57.8138 99.1663 46.7607 98.6815C43.5794 98.542 40.4082 98.1151 37.2363 97.7774C36.2662 97.674 35.2926 97.4963 34.3503 97.2325C32.9658 96.8449 32.169 95.7539 32.0216 94.3033C31.5391 89.5528 30.935 84.8007 30.7619 80.0334C30.4228 70.692 30.3336 61.3402 30.1608 51.9923C30.0943 48.3984 30.0973 44.8031 30.0308 41.2092C30.0186 40.5494 30.2022 40.3436 30.8017 40.4163C33.767 40.7761 36.7354 41.1055 39.7001 41.4694C40.8524 41.6108 42.0061 41.77 43.1444 42.0022C44.2696 42.2316 44.5555 42.6831 44.6622 43.8912C45.0567 48.3603 45.4719 52.8273 45.8762 57.2953C46.1909 60.7739 46.4843 64.2548 46.8187 67.7312C47.0646 70.2879 47.3642 72.8388 47.6331 75.3931C47.6863 75.8985 47.6421 76.4259 47.7589 76.9114C47.9913 77.8771 48.6965 78.4752 49.6622 78.4917C54.0373 78.5662 58.4132 78.67 62.7881 78.6412C65.4062 78.624 68.0231 78.3829 70.6404 78.2401C71.9937 78.1662 72.6616 77.4837 72.7804 76.0398C72.9357 74.1539 73.0903 72.2678 73.2286 70.3805C73.5193 66.4121 73.8163 62.4442 74.0789 58.4736C74.4136 53.4138 74.7162 48.3516 75.0343 43.2907C75.1003 42.2408 75.4574 41.7222 76.4427 41.5297C78.8625 41.0571 81.2887 40.6171 83.7203 40.2192C85.386 39.9466 87.0645 39.7606 88.7388 39.551C89.0497 39.5121 89.3688 39.5455 89.828 39.5455ZM64.7992 88.2108C65.1466 88.4845 65.3295 88.615 65.4982 88.7637C66.3408 89.506 67.2434 90.1869 68.0034 91.0159C68.8687 91.9596 69.866 92.1133 70.9997 91.9797C71.4619 91.9253 71.7032 91.7471 71.6911 91.2108C71.6457 89.1711 71.6482 87.1299 71.5785 85.0912C71.5275 83.5984 71.4896 83.5998 70.0698 83.6293C68.6947 83.6577 68.6969 83.6577 68.7056 85.1401C68.7106 85.9762 68.7065 86.8124 68.7065 87.7323C68.51 87.6201 68.3619 87.5659 68.2493 87.4663C67.3727 86.6915 66.5253 85.8771 65.6245 85.1361C64.7896 84.4494 64.1254 83.4211 62.8125 83.6526C62.0172 83.7928 61.8264 83.8729 61.8337 84.7672C61.8476 86.4911 61.8553 88.2159 61.914 89.9385C61.9965 92.359 61.59 92.0691 64.0769 92.0507C64.6443 92.0465 64.8282 91.7714 64.8077 91.1898C64.7754 90.2751 64.7992 89.3581 64.7992 88.2108ZM83.8581 91.5593C83.9064 91.4692 83.9548 91.3793 84.0032 91.2892C82.639 89.9293 81.275 88.5695 79.8373 87.1361C81.3563 85.8412 83.1373 85.0854 84.49 83.5984C84.3187 83.5012 84.2434 83.4219 84.1668 83.4204C82.3677 83.3838 80.5285 83.0577 79.0025 84.5567C78.4878 85.0622 77.814 85.3841 77.1448 85.836C77.0896 85.578 77.0462 85.4657 77.0443 85.3526C77.0104 83.2673 77.2285 83.4463 74.9723 83.4679C74.3722 83.4737 74.1162 83.7493 74.1323 84.4035C74.1765 86.1975 74.1572 87.9937 74.2182 89.7869C74.3009 92.2211 73.9357 91.8758 76.408 91.8857C76.9462 91.8879 77.1413 91.6022 77.1335 91.078C77.1259 90.5694 77.0804 90.0571 77.1219 89.5532C77.1779 88.8729 77.6739 88.6641 78.1598 89.1074C78.7817 89.6748 79.4335 90.2217 79.9733 90.8708C81.1357 92.2689 82.5064 91.7637 83.8581 91.5593ZM57.9156 92.0781C58.3877 92.0781 58.7984 92.0952 59.2071 92.0735C59.6507 92.0498 59.778 91.7995 59.5391 91.3963C58.1176 88.9968 56.6979 86.596 55.251 84.2141C55.1093 83.9807 54.797 83.7479 54.5471 83.7255C53.1084 83.5956 51.6169 83.4131 51.0158 85.3618C51.002 85.4067 50.9694 85.445 50.9459 85.4867C49.8438 87.4377 48.7324 89.3828 47.6456 91.3434C47.3194 91.9319 47.4225 92.1025 48.0629 92.1353C48.5861 92.1621 49.1146 92.1119 49.6346 92.1643C50.3356 92.235 50.7966 91.9842 51.1071 91.2864C51.2904 90.8743 51.4887 90.399 52.0826 90.4133C53.0622 90.4367 54.044 90.3783 55.0221 90.4224C55.264 90.4334 55.6078 90.6455 55.7128 90.8679C56.1963 91.8904 56.8924 92.3784 57.9156 92.0781ZM42.412 83.9084C42.412 83.92 42.412 83.9313 42.412 83.9428C40.8386 83.9428 39.2651 83.938 37.6917 83.9475C37.4213 83.9491 37.1292 83.957 36.8895 84.0669C36.7534 84.1293 36.5979 84.4319 36.6314 84.58C36.9603 86.0332 37.5662 86.5235 38.9506 86.5204C39.3383 86.5195 39.7273 86.5427 40.1133 86.5153C40.6381 86.478 40.8462 86.6936 40.8366 87.27C40.8146 88.5812 40.8665 89.8942 40.8369 91.2051C40.8209 91.9124 41.104 92.1726 41.7296 92.1455C42.1622 92.1267 42.5975 92.1202 43.0289 92.15C43.6392 92.192 43.8897 91.951 43.8648 91.2667C43.8163 89.9323 43.8486 88.5947 43.8179 87.2592C43.8059 86.7322 43.9824 86.5017 44.4864 86.5124C45.17 86.5268 45.8605 86.5552 46.5356 86.4686C46.8493 86.4284 47.1722 86.1765 47.4199 85.937C47.63 85.7338 47.7418 85.413 47.8906 85.1401C48.3981 84.2092 48.2607 83.9211 47.2691 83.9124C45.6502 83.8979 44.0311 83.9084 42.412 83.9084Z" fill="black"/>
<path d="M30.0601 37.7303C30.0382 37.6077 29.9974 37.493 30.0001 37.3793C30.0978 33.3497 30.1944 29.3201 30.3062 25.2909C30.3243 24.6377 30.4034 23.9858 30.4708 23.3353C30.5527 22.5457 31.2362 21.8769 31.9871 21.8947C36.2261 21.995 40.4642 22.1514 44.7034 22.2033C47.2288 22.2342 49.7584 22.1672 52.2817 22.0417C57.9318 21.7606 63.5773 21.6877 69.2346 21.8818C72.2762 21.9861 75.3308 21.6855 78.3786 21.5444C80.4725 21.4475 82.565 21.3153 84.6576 21.1892C85.4759 21.1398 86.2922 21.0481 87.1107 21.0039C88.1697 20.9468 88.8034 21.5167 88.9037 22.6603C89.0838 24.7137 89.2619 26.7683 89.3812 28.8264C89.5216 31.2488 89.5865 33.6764 89.7125 36.1C89.7402 36.6303 89.6567 36.8893 89.0888 36.9355C86.6384 37.1352 84.1894 37.3615 81.7433 37.6159C79.341 37.8657 76.9431 38.1628 74.5428 38.4347C74.1582 38.4782 73.7534 38.4331 73.3889 38.5441C72.6353 38.7739 71.8901 39.0491 71.1651 39.3666C70.538 39.6412 70.3771 40.2156 70.3813 40.9153C70.4103 45.8217 70.4283 50.7281 70.4277 55.6345C70.4272 60.6376 70.4144 65.6409 70.3768 70.6438C70.3685 71.7577 70.2304 72.8702 70.1594 73.9839C70.1163 74.6593 69.7842 74.9207 69.1532 75.0036C63.2201 75.7836 57.2822 75.6896 51.3361 75.2145C50.6257 75.1578 50.2754 74.8661 50.2173 74.1516C50.027 71.8083 49.7485 69.467 49.6841 67.1193C49.5036 60.5415 49.4104 53.9609 49.2892 47.3812C49.2503 45.2688 49.2115 43.1561 49.2141 41.0436C49.215 40.2705 48.9184 39.7023 48.2537 39.5686C47.1946 39.3554 34.8032 38.1058 30.0601 37.7303Z" fill="black"/>
<path d="M53.4786 86.2867C53.9188 87.0316 54.2929 87.6647 54.7372 88.4166C53.8553 88.4166 53.1279 88.4166 52.265 88.4166C52.6866 87.6768 53.0516 87.036 53.4786 86.2867Z" fill="black"/>
</svg>
