<svg width="120" height="120" viewBox="0 0 120 120" fill="none" xmlns="http://www.w3.org/2000/svg">
<path fill-rule="evenodd" clip-rule="evenodd" d="M59.4715 95.9926C59.6691 95.989 59.8667 95.9853 60.0641 95.9853L60.0574 95.9876L60.0576 95.9926C60.0567 95.9809 60.0576 95.9926 60.0576 95.9926C60.3497 95.9926 60.6314 95.9901 60.9094 95.9877C61.2988 95.9842 61.6826 95.9808 62.0756 95.9844L62.0805 95.9841C63.5797 95.8906 65.0789 95.7971 66.567 95.6067C68.8275 95.3193 71.0836 94.9221 73.3081 94.422C76.7236 93.6532 80.011 92.4451 83.1771 90.9075C87.0982 89.0007 90.7339 86.6429 93.9741 83.6309C95.7156 82.0115 97.3379 80.2846 98.7603 78.3708C100.56 75.9476 102.014 73.3047 103.104 70.4516C104.169 67.6662 104.816 64.7709 104.967 61.7939C105.056 60.0156 104.96 58.207 104.737 56.4404C104.515 54.6644 104.115 52.8979 103.645 51.1687C103.079 49.0913 102.212 47.1214 101.102 45.2917C100.167 43.7518 99.2142 42.2049 98.1019 40.8052C96.9514 39.3564 95.6616 38.0127 94.3202 36.7509C92.9472 35.461 91.4732 34.2739 89.9766 33.1359C87.9206 31.5726 85.6938 30.2944 83.3704 29.2125C82.0109 28.5793 80.6402 27.9647 79.2425 27.4272C75.6293 26.0345 71.9127 25.0438 68.0815 24.5717C67.7061 24.5256 67.3306 24.4769 66.9548 24.4281C65.4638 24.2346 63.9702 24.0408 62.4752 24.0109C59.9765 23.9618 57.471 24.0857 54.9723 24.2352C53.6782 24.3143 52.389 24.5103 51.1018 24.706C50.8672 24.7417 50.6319 24.7775 50.3974 24.8124C47.9391 25.1793 45.5393 25.8149 43.1664 26.572C39.4857 27.745 35.9916 29.3457 32.6727 31.36C29.783 33.1149 27.0933 35.1759 24.7115 37.6178C23.3228 39.0432 22.0577 40.6182 20.8511 42.2189C19.1478 44.4785 17.8872 47.0139 16.8581 49.6731C15.7458 52.545 15.1256 55.5501 15.0178 58.6276C14.9481 60.6349 15.0874 62.6748 15.3616 64.6681C15.7301 67.3413 16.5547 69.9071 17.6828 72.3467C18.8872 74.9498 20.3208 77.4174 22.2195 79.5392C22.3283 79.6605 22.437 79.782 22.5457 79.9036C24.006 81.5355 25.477 83.1794 27.1248 84.5843C28.8423 86.0461 30.7361 87.2931 32.6199 88.5334C32.7867 88.6432 32.9534 88.753 33.1199 88.8628C35.5714 90.4799 38.2409 91.6506 40.971 92.6671C44.7258 94.0621 48.5705 95.0856 52.5455 95.5062C54.3531 95.6978 56.1648 95.8307 57.9768 95.9636L58.1766 95.9783C58.6068 96.0087 59.0392 96.0007 59.4715 95.9926ZM41.5866 32.1544C53.9273 27.1981 66.259 27.2121 78.766 32.0913H78.7615C78.4525 32.3051 78.1548 32.5105 77.8653 32.7103C77.1739 33.1875 76.529 33.6325 75.8876 34.0822C75.2794 34.5087 74.6671 34.9295 74.0548 35.3504C72.6107 36.343 71.1656 37.3364 69.7756 38.4028C66.9623 40.5643 65.0209 43.4105 64.1603 46.9647C63.6592 49.0351 63.621 51.1568 63.8929 53.2716C63.9378 53.6212 63.9823 53.971 64.0268 54.3209C64.296 56.4382 64.5656 58.5582 64.9378 60.6558C65.4349 63.4661 65.993 66.2644 66.551 69.0617L66.5536 69.075C66.7287 69.9529 66.9038 70.8306 67.0769 71.7086C67.5174 73.9402 68.2274 76.076 69.2453 78.102C70.5778 80.7495 72.4361 82.932 74.7438 84.6799C75.6229 85.3448 76.5435 85.9497 77.4642 86.5547C77.9155 86.8512 78.3668 87.1477 78.8132 87.4513C78.8602 87.4824 78.8972 87.5275 78.9511 87.5932C78.957 87.6004 78.9632 87.608 78.9696 87.6157C78.9763 87.6238 78.9833 87.6323 78.9907 87.641C79.0041 87.6571 79.0186 87.6743 79.0344 87.6924C79.0447 87.7043 79.0556 87.7166 79.0671 87.7294C66.3669 92.896 53.7677 92.8632 41.0181 87.7154C41.4478 87.4239 41.8635 87.1445 42.2689 86.8719C43.1312 86.2921 43.9471 85.7435 44.7526 85.1777C48.0805 82.8386 50.4399 79.7073 51.8937 75.8119C52.8159 73.3362 53.3116 70.7558 53.808 68.1718L53.8284 68.0656C53.9297 67.5375 54.0329 67.0096 54.1362 66.4816C54.3673 65.2996 54.5984 64.1174 54.8081 62.9318C55.069 61.4657 55.302 59.9945 55.5351 58.5226C55.5751 58.2701 55.6151 58.0177 55.6553 57.7652C55.7145 57.391 55.7761 57.0172 55.8378 56.6433C56.0194 55.542 56.2013 54.4392 56.3204 53.33C56.5338 51.3578 56.4754 49.3856 56.0822 47.4321C55.6283 45.1701 54.6711 43.1535 53.3138 41.3401C52.3836 40.097 51.269 39.0408 50.0197 38.1481C48.1282 36.7951 46.2241 35.4588 44.3203 34.1227L43.6201 33.6312C43.4758 33.5305 43.3308 33.4309 43.1855 33.331C42.6497 32.9628 42.1098 32.5919 41.5866 32.1544ZM89.1878 75.5667C90.6079 75.6368 92.3853 75.1695 94.0818 74.403L94.1389 74.3774L94.2557 74.3253C94.9102 74.0338 95.6612 73.6993 95.9828 73.1505C96.8592 71.655 97.567 70.0356 98.1939 68.4046C99.0366 66.2127 99.4298 63.911 99.6185 61.5462C99.7556 59.8217 99.6298 58.1322 99.432 56.4497C99.2725 55.0944 98.9579 53.7321 98.522 52.4422C97.9872 50.8579 97.4097 49.2478 96.5715 47.8271C95.266 45.6095 93.3853 43.9598 91.082 42.8615C89.217 41.9712 87.2621 41.7866 85.3027 42.2399C83.7859 42.5928 82.2872 43.1162 80.8468 43.7308C78.9346 44.5486 77.0583 45.4716 75.218 46.4531C72.9395 47.6682 71.7508 50.8064 72.4249 53.3161C73.1193 55.9029 73.8765 58.4757 74.7012 61.0204C74.8776 61.5651 75.0459 62.1133 75.2143 62.6616C75.8779 64.8228 76.5423 66.9864 77.7055 68.949C78.6627 70.5614 79.7727 72.0382 81.2468 73.1528C83.4669 74.833 85.9992 75.5574 89.1878 75.5667ZM31.7416 75.4069C32.17 75.3861 32.5983 75.3654 33.0076 75.2614C33.2673 75.195 33.5286 75.1313 33.7904 75.0675C34.8924 74.7989 36.0009 74.5287 37.0141 74.0509C38.9465 73.1396 40.3936 71.567 41.625 69.7677C42.9777 67.7931 43.7439 65.5568 44.4675 63.2949C45.1731 61.089 45.8584 58.8784 46.5213 56.6585C46.6209 56.3246 46.7277 55.9909 46.8346 55.6567C47.1715 54.604 47.5097 53.5471 47.6291 52.4687C47.91 49.9356 47.0134 47.7998 44.8832 46.4141C43.8557 45.7466 42.7215 45.2413 41.6012 44.7421L41.2129 44.569C39.5515 43.8279 37.8857 43.0849 36.1759 42.4791C34.0749 41.7336 31.9178 41.6191 29.7629 42.3435C27.1384 43.2268 25.2149 45.0752 23.6554 47.3208C22.9642 48.3152 22.4891 49.4865 22.0242 50.6325C21.9965 50.7009 21.9687 50.7694 21.9409 50.8376C21.168 52.7374 20.6759 54.7353 20.4669 56.7847C20.3298 58.1376 20.3118 59.5117 20.35 60.8717C20.386 62.1171 20.4669 63.3813 20.7096 64.5988C21.2376 67.251 22.1364 69.7747 23.4105 72.1488C23.7543 72.7891 24.1835 73.3219 24.8104 73.6911C26.7766 74.8501 28.8843 75.4203 31.1493 75.446L31.1516 75.4437C31.347 75.426 31.5444 75.4164 31.7416 75.4069Z" fill="#101010"/>
</svg>
