<svg width="120" height="120" viewBox="0 0 120 120" fill="none" xmlns="http://www.w3.org/2000/svg">
<path d="M60.2982 105C53.4471 104.956 47.0807 104.59 40.8044 103.069C30.0011 100.451 22.967 93.7452 19.3636 83.1926C17.5686 77.936 16.5799 72.511 15.913 67.0059C15.1862 61.0096 14.8327 54.9959 15.0769 48.9609C15.2741 44.0783 15.9619 39.2637 17.6404 34.6458C20.413 27.018 25.6941 21.9139 33.0935 18.9555C37.6883 17.1184 42.4875 16.2037 47.3765 15.6575C53.668 14.9546 59.9741 14.8601 66.2867 15.1628C72.6321 15.4671 78.9083 16.2118 84.9912 18.2301C95.5752 21.7413 101.796 29.097 103.925 40.0944C105.154 46.4461 105.197 52.8515 104.712 59.279C104.309 64.6231 103.761 69.947 102.685 75.2032C101.553 80.7404 99.9093 86.0856 96.8925 90.9063C92.8064 97.436 86.7859 101.116 79.5286 102.982C73.0685 104.642 66.477 104.952 60.2982 105ZM58.7252 101.013C65.6691 101.014 71.4225 100.716 77.0476 99.1705C82.9455 97.5498 87.8135 94.4342 91.2212 89.1896C93.429 85.7918 94.8583 82.048 95.8397 78.1353C98.1074 69.095 98.8932 59.8825 98.6803 50.5809C98.5867 46.4894 98.0788 42.4382 96.9369 38.4869C94.7448 30.8993 90.09 25.5962 82.7988 22.6881C78.4173 20.9408 73.8439 20.102 69.1838 19.6928C63.0899 19.1575 56.9909 19.1502 50.8947 19.6867C46.5338 20.0706 42.2479 20.8138 38.1148 22.344C31.3012 24.867 26.4477 29.4268 23.8548 36.344C22.2481 40.6305 21.5568 45.1106 21.352 49.6608C21.0634 56.06 21.3485 62.4434 22.242 68.7896C22.9467 73.7969 23.9576 78.7256 25.7988 83.4593C29.0185 91.7374 34.7812 97.0621 43.3343 99.2708C48.7721 100.675 54.3055 101.031 58.7252 101.013Z" fill="#0A4986"/>
<path d="M60.0226 23.9245C65.2051 24.0023 70.3475 24.3371 75.3706 25.8181C84.7623 28.5873 90.2249 34.9598 92.2481 44.5165C93.4901 50.3831 93.39 56.3028 92.8588 62.2406C92.4346 66.9832 91.7138 71.6653 90.2719 76.2081C88.4811 81.8498 85.7356 86.873 80.9586 90.5228C77.6185 93.0748 73.8049 94.5159 69.7192 95.2328C62.9033 96.4289 56.0802 96.403 49.2919 95.0459C40.2331 93.2343 34.0978 87.8411 30.6633 79.2095C28.8186 74.5735 27.8674 69.7237 27.2728 64.7884C26.7466 60.4202 26.5066 56.0341 26.7294 51.638C27.0026 46.241 27.966 41.0049 30.6916 36.2527C34.0558 30.3872 39.293 27.1744 45.6147 25.5081C50.342 24.2616 55.1707 23.9903 60.0226 23.9245ZM76.1254 30.2363C76.1254 30.9272 76.1189 31.4699 76.1265 32.0126C76.2305 39.4051 76.3761 46.7976 76.4246 54.1905C76.4468 57.6045 75.8537 60.9501 74.544 64.1091C70.8015 73.1362 66.6783 81.9838 62.1937 90.6583C61.6357 91.7371 61.8432 92.1443 63.0226 92.0653C65.0182 91.931 67.0227 91.8044 68.9977 91.5029C73.2836 90.8483 77.1637 89.2176 80.3934 86.2084C83.8909 82.9499 85.96 78.8151 87.2215 74.2684C89.5794 65.7712 90.1947 57.1164 88.9966 48.3699C88.4207 44.1662 87.1038 40.1967 84.5559 36.7346C82.394 33.7974 79.6088 31.6975 76.1254 30.2363ZM58.3732 92.0808C58.0778 91.5211 57.8217 91.0802 57.6058 90.6203C53.8262 82.5741 50.0237 74.5386 46.2877 66.4718C44.5259 62.668 43.713 58.6311 43.7589 54.4181C43.8403 46.8742 43.9015 39.33 43.9706 31.7858C43.9729 31.5287 43.971 31.2721 43.971 30.9241C39.4477 32.6172 36.0713 35.463 33.8727 39.7055C31.717 43.8658 30.8296 48.3672 30.7103 52.9917C30.6152 56.6767 30.7661 60.3815 31.0405 64.0595C31.3856 68.6871 32.3632 73.2055 34.0833 77.5304C35.9609 82.2508 38.7472 86.2378 43.1348 88.9129C47.5064 91.578 52.356 92.2744 57.3333 92.4122C57.6547 92.4218 57.983 92.2113 58.3732 92.0808ZM48.4171 29.2264C48.4694 29.4486 48.4908 29.5933 48.5371 29.7292C49.3163 32.0122 50.1223 34.2863 50.8759 36.5782C53.5694 44.7693 56.7761 52.7881 58.9246 61.1622C58.9908 61.4204 59.0997 61.6828 59.2495 61.9004C59.6844 62.5313 60.5255 62.45 60.8167 61.7347C61.5555 59.9208 62.3381 58.1205 62.9733 56.2691C65.4581 49.0245 67.894 41.7624 70.3444 34.5054C70.9295 32.7728 71.5016 31.036 72.1054 29.2244C64.1507 27.9068 56.3168 27.8836 48.4171 29.2264Z" fill="#0A4986"/>
</svg>
