<svg width="120" height="120" viewBox="0 0 120 120" fill="none" xmlns="http://www.w3.org/2000/svg">
<path d="M88.4761 64.3579V67.3745C86.6446 67.3745 84.8531 67.3745 83.0616 67.3745C82.9016 67.3745 82.7238 67.1834 82.586 67.0427C80.6078 64.9713 80.6078 64.9663 80.6078 61.9497C80.6078 59.9839 80.5855 58.0181 80.6078 56.0524C80.6427 55.6309 80.7711 55.2262 80.9812 54.8759C81.3869 54.0132 82.0309 53.3243 82.815 52.914C83.5991 52.5037 84.4803 52.3947 85.3243 52.6034C86.3699 52.6993 87.4203 52.7094 88.4672 52.6336V55.8915C87.4848 55.8915 86.5557 55.8915 85.6222 55.8915C85.2152 55.9283 84.8312 56.1197 84.5325 56.4346C84.2339 56.7495 84.0383 57.1694 83.9774 57.626C83.9774 59.2047 83.9774 60.7833 83.9774 62.362C83.9774 63.1915 84.9731 64.2272 85.7155 64.2373L88.3027 64.2624C88.3516 64.2624 88.3872 64.3076 88.4761 64.3579Z" fill="#14191B"/>
<path d="M109.174 64.2373C110.165 64.2373 111.077 64.2373 111.983 64.2373C112.415 64.1847 112.818 63.9665 113.124 63.6188C113.431 63.2711 113.623 62.8151 113.668 62.3268C113.668 60.8185 113.668 59.2851 113.668 57.7617C113.669 57.5165 113.626 57.2735 113.542 57.0473C113.458 56.8211 113.335 56.6162 113.18 56.4446C113.025 56.2731 112.842 56.1384 112.64 56.0486C112.438 55.9588 112.222 55.9156 112.006 55.9216C111.077 55.9216 110.143 55.9216 109.187 55.9216V52.7643C109.53 52.7241 109.841 52.6688 110.152 52.6587C110.939 52.6587 111.73 52.6336 112.517 52.6336C115.082 52.6336 115.091 52.6336 116.695 54.8357C116.872 55.0867 116.973 55.3949 116.984 55.7155C117.005 58.5712 117.005 61.4201 116.984 64.2624C116.953 64.6062 116.841 64.9342 116.66 65.2126C116.236 66.0423 115.593 66.7006 114.821 67.0948C114.049 67.489 113.187 67.5991 112.357 67.4097C111.293 67.3139 110.225 67.3038 109.161 67.3795L109.174 64.2373Z" fill="#14191B"/>
<path d="M19.448 52.6839V55.1323C19.448 58.0936 19.448 61.0548 19.448 64.011C19.4716 64.2966 19.4315 64.5843 19.3313 64.8478C19.2311 65.1113 19.074 65.3422 18.8745 65.5193C18.8005 65.593 18.7307 65.6719 18.6656 65.7556C17.1364 67.5102 16.5718 67.7063 14.2824 67.2639V52.6839H19.448Z" fill="#14191B"/>
<path d="M89.2096 64.2373C90.2009 64.2373 91.1122 64.2373 92.0235 64.2373C92.4539 64.1797 92.8546 63.9599 93.1611 63.6133C93.4675 63.2667 93.6619 62.8135 93.7128 62.3268C93.7128 60.8017 93.7128 59.2784 93.7128 57.7567C93.6818 57.2667 93.4934 56.8065 93.183 56.4629C92.8726 56.1193 92.4618 55.916 92.028 55.8915L89.5119 55.8261C89.4193 55.8076 89.3285 55.779 89.2407 55.7406V52.6336C90.525 52.7025 91.8117 52.6908 93.0949 52.5984C94.513 52.4224 95.442 53.0157 96.2867 54.2273C96.8009 54.879 97.0773 55.7271 97.0602 56.6004C97.0068 59.1142 97.0602 61.5877 97.0202 64.0814C96.9714 64.5294 96.818 64.9546 96.5756 65.3132C95.5976 67.0376 94.2196 67.7013 92.3925 67.4097C91.3275 67.3164 90.2581 67.3063 89.1918 67.3795L89.2096 64.2373Z" fill="#14191B"/>
<path d="M108.534 64.2373V67.3795C107.402 67.3114 106.268 67.3215 105.137 67.4097C104.395 67.5617 103.629 67.4624 102.937 67.1243C102.244 66.7863 101.655 66.2244 101.243 65.5092C100.896 65.0596 100.698 64.4872 100.683 63.8904C100.713 61.3162 100.713 58.7404 100.683 56.163C100.695 55.5719 100.878 55.0015 101.203 54.5391C101.581 53.8106 102.152 53.2342 102.834 52.8907C103.517 52.5472 104.277 52.4538 105.009 52.6235C106.089 52.726 107.174 52.7579 108.258 52.7191C108.341 52.7384 108.422 52.7688 108.498 52.8096V55.9166C107.525 55.9166 106.551 55.9166 105.578 55.9166C105.167 55.9444 104.78 56.1424 104.491 56.4726C104.201 56.8028 104.029 57.242 104.008 57.7064C104.008 59.2616 104.008 60.8135 104.008 62.362C104.07 62.833 104.265 63.2689 104.562 63.6057C104.86 63.9424 105.246 64.162 105.662 64.2322C106.578 64.2423 107.529 64.2373 108.534 64.2373Z" fill="#14191B"/>
<path d="M32.0818 55.8915C30.7748 55.8915 29.5746 55.9468 28.3788 55.8663C27.6808 55.8211 27.463 56.1026 27.3386 56.8316C26.7829 60.0945 26.1694 63.3675 25.6093 66.6053C25.5115 67.1683 25.3337 67.4046 24.8002 67.3795C23.9112 67.3343 22.9865 67.3795 21.9552 67.3795C22.1686 66.1779 22.3642 65.107 22.5553 64.0412C23.1866 60.5319 23.8267 57.0528 24.4313 53.5335C24.5335 52.9453 24.7202 52.6638 25.2803 52.6688C27.2007 52.6688 29.1256 52.6336 31.0593 52.6688C31.1745 52.6923 31.2828 52.7471 31.375 52.8286C31.4671 52.9101 31.5404 53.0157 31.5884 53.1364C31.7751 53.9508 31.8951 54.8005 32.0818 55.8915Z" fill="#14191B"/>
<path d="M38.3365 67.3594C37.2162 67.3594 36.1893 67.3896 35.1625 67.3292C35.0113 67.3292 34.7846 66.9471 34.7401 66.7058C34.1178 63.3222 33.5265 59.9286 32.9264 56.5501C32.7041 55.3133 32.4819 54.0715 32.2507 52.714C33.3843 52.714 34.4112 52.6839 35.4292 52.7492C35.5848 52.7492 35.8026 53.2017 35.8737 53.4732C36.4694 56.8216 37.0606 60.18 37.6741 63.5435C37.8786 64.7853 38.1186 66.0271 38.3365 67.3594Z" fill="#14191B"/>
<path d="M41.5816 52.704H44.7867V67.3091H41.5816V52.704Z" fill="#14191B"/>
<path d="M64.4087 67.3041C64.1385 67.3828 63.8548 67.3811 63.5853 67.2991C63.3158 67.2172 63.0696 67.0579 62.8706 66.8365C62.2183 66.3067 61.7074 65.5842 61.3938 64.748C61.0801 63.9118 60.9759 62.9942 61.0925 62.0955C61.2525 60.0845 61.0925 58.0734 61.1502 56.0322C61.19 55.5572 61.3437 55.1035 61.5948 54.72C61.8926 54.2173 62.3238 53.8201 62.6572 53.3425C62.844 53.0301 63.1188 52.7984 63.4368 52.6852C63.7549 52.572 64.0974 52.5839 64.4087 52.7191V67.3041Z" fill="#14191B"/>
<path d="M57.6384 52.704V55.8362H45.5691V52.704H57.6384Z" fill="#14191B"/>
<path d="M57.6295 64.3127V67.3292H45.5825V64.3127H57.6295Z" fill="#14191B"/>
<path d="M65.1778 67.3242V64.3076H77.3137V67.3242H65.1778Z" fill="#14191B"/>
<path d="M65.2 55.7457V52.7291H77.287V55.7457H65.2Z" fill="#14191B"/>
<path d="M56.8338 58.5611V61.5777H45.5691V58.5611H56.8338Z" fill="#14191B"/>
<path d="M13.54 64.3127V67.3292C13.3222 67.3292 13.0955 67.3795 12.9043 67.3795C10.5616 67.3795 8.2189 67.3795 5.87617 67.3795C5.50774 67.3486 5.16106 67.1703 4.89818 66.8767C4.25805 66.1025 3.69348 65.2428 3 64.3127H13.54Z" fill="#14191B"/>
</svg>
