<svg width="40" height="40" viewBox="0 0 40 40" fill="none" xmlns="http://www.w3.org/2000/svg">
<path fill-rule="evenodd" clip-rule="evenodd" d="M4.67052 18.0011C5.03077 18.0001 5.39106 18.0011 5.7513 18.004C5.76327 18.0088 5.77154 18.0176 5.77612 18.0301C5.77981 19.2178 5.77981 20.4054 5.77612 21.593C5.74728 21.8152 5.62872 21.9499 5.42045 21.9969C3.73311 22.0008 2.04577 22.0008 0.358424 21.9969C0.147815 21.9493 0.0292597 21.8127 0.00275848 21.5872C-0.000919492 21.221 -0.000919492 20.8548 0.00275848 20.4887C0.00581885 20.471 0.0159264 20.4603 0.0330865 20.4567C0.395639 20.4509 0.757734 20.4529 1.11938 20.4625C1.12398 20.4674 1.12857 20.4722 1.13317 20.4771C1.135 20.7057 1.13685 20.9343 1.13868 21.1629C1.14144 21.1658 1.1442 21.1687 1.14695 21.1716C2.30861 21.1755 3.47027 21.1755 4.63192 21.1716C4.63468 21.1687 4.63744 21.1658 4.6402 21.1629C4.64203 20.1167 4.64387 19.0705 4.64571 18.0243C4.65341 18.0152 4.66168 18.0075 4.67052 18.0011Z" fill="#090505"/>
<path fill-rule="evenodd" clip-rule="evenodd" d="M7.16845 18.0011C8.94816 17.9982 10.7274 18.0011 12.5062 18.0098C12.5128 18.0151 12.5174 18.0218 12.52 18.0301C12.5237 18.2878 12.5237 18.5455 12.52 18.8032C12.5154 18.8119 12.509 18.8187 12.5007 18.8235C10.9769 18.8254 9.45315 18.8274 7.92941 18.8293C7.92296 18.8322 7.91838 18.8371 7.91563 18.8438C7.91193 19.086 7.91193 19.3282 7.91563 19.5704C7.91767 19.5757 7.92043 19.5805 7.9239 19.5849C9.35026 19.5868 10.7766 19.5888 12.2029 19.5907C12.2128 19.5953 12.2211 19.602 12.2277 19.611C12.2314 19.8707 12.2314 20.1303 12.2277 20.3899C12.2257 20.3952 12.2229 20.4 12.2195 20.4044C10.7899 20.4121 9.35985 20.416 7.92941 20.416C7.92296 20.4189 7.91838 20.4238 7.91563 20.4306C7.91193 20.6727 7.91193 20.9149 7.91563 21.1571C7.91767 21.1624 7.92043 21.1672 7.9239 21.1716C9.44764 21.1735 10.9714 21.1755 12.4952 21.1774C12.5071 21.1823 12.5154 21.191 12.52 21.2036C12.5254 21.4656 12.5236 21.7272 12.5145 21.9882C12.5103 21.9918 12.5058 21.9948 12.5007 21.9969C10.7123 22.0008 8.92379 22.0008 7.13537 21.9969C6.96388 21.9604 6.85084 21.8548 6.79625 21.6802C6.78643 21.6421 6.78092 21.6034 6.7797 21.5639C6.77601 20.5216 6.77601 19.4793 6.7797 18.437C6.80446 18.1871 6.93405 18.0418 7.16845 18.0011Z" fill="#090505"/>
<path fill-rule="evenodd" clip-rule="evenodd" d="M13.5539 18.0011C15.4931 18.0001 17.4322 18.0011 19.3714 18.004C19.3823 18.0073 19.3906 18.0141 19.3962 18.0243C19.3999 18.2859 19.3999 18.5474 19.3962 18.809C19.3916 18.8138 19.387 18.8187 19.3824 18.8235C18.601 18.8245 17.8198 18.8274 17.0389 18.8322C17.0361 19.8826 17.0315 20.9327 17.0251 21.9824C17.0205 21.9872 17.0159 21.9921 17.0113 21.9969C16.6455 22.0008 16.2797 22.0008 15.914 21.9969C15.903 21.9893 15.8966 21.9786 15.8947 21.965C15.8937 20.9207 15.891 19.8765 15.8864 18.8322C15.1054 18.8274 14.3243 18.8245 13.5429 18.8235C13.5383 18.8187 13.5337 18.8138 13.5291 18.809C13.5254 18.5474 13.5254 18.2859 13.5291 18.0243C13.5341 18.0121 13.5424 18.0043 13.5539 18.0011Z" fill="#090505"/>
<path fill-rule="evenodd" clip-rule="evenodd" d="M20.7885 18.0011C22.5145 18.0001 24.2404 18.0011 25.9663 18.004C26.1798 18.0352 26.3076 18.1621 26.3496 18.3847C26.3533 19.4619 26.3533 20.5391 26.3496 21.6162C26.323 21.7876 26.2338 21.9068 26.0821 21.9737C26.0553 21.9841 26.0277 21.9919 25.9994 21.9969C24.2532 22.0008 22.5071 22.0008 20.7609 21.9969C20.5577 21.9513 20.4392 21.8205 20.4053 21.6046C20.4016 20.5352 20.4016 19.4657 20.4053 18.3963C20.4299 18.2309 20.5135 18.1118 20.6562 18.0389C20.6996 18.0207 20.7437 18.0081 20.7885 18.0011ZM21.555 18.8264C22.7718 18.8254 23.9886 18.8264 25.2054 18.8293C25.2081 18.8322 25.2109 18.8351 25.2137 18.838C25.2173 19.6149 25.2173 20.3918 25.2137 21.1687C23.9908 21.1764 22.7676 21.1764 21.544 21.1687C21.5376 20.392 21.5366 19.6152 21.5412 18.838C21.5467 18.8347 21.5513 18.8309 21.555 18.8264Z" fill="#090505"/>
<path fill-rule="evenodd" clip-rule="evenodd" d="M27.3835 18.0011C27.7437 18.0001 28.104 18.0011 28.4643 18.004C28.4762 18.0088 28.4845 18.0176 28.4891 18.0301C28.4909 19.0763 28.4928 20.1225 28.4946 21.1687C29.0723 21.1726 29.6504 21.1745 30.2288 21.1745C30.8072 21.1745 31.3854 21.1726 31.963 21.1687C31.9648 20.1225 31.9667 19.0763 31.9685 18.0301C31.9731 18.0176 31.9814 18.0088 31.9933 18.004C32.3577 17.9982 32.7217 18.0002 33.0852 18.0098C33.0897 18.0146 33.0944 18.0195 33.0989 18.0243C33.1026 19.2236 33.1026 20.4228 33.0989 21.622C33.0708 21.7908 32.9817 21.908 32.8315 21.9737C32.8047 21.9841 32.7771 21.9919 32.7488 21.9969C31.0688 22.0008 29.3888 22.0008 27.7088 21.9969C27.557 21.9658 27.4494 21.8757 27.3862 21.7267C27.3727 21.691 27.3635 21.6542 27.3587 21.6162C27.355 20.4189 27.355 19.2216 27.3587 18.0243C27.3664 18.0152 27.3747 18.0075 27.3835 18.0011Z" fill="#090505"/>
<path fill-rule="evenodd" clip-rule="evenodd" d="M34.1329 18.0011C35.936 18.0001 37.7391 18.0011 39.5423 18.004C39.7251 18.0282 39.8473 18.1318 39.909 18.3149C39.9166 18.3455 39.9222 18.3765 39.9255 18.4079C39.9292 18.9291 39.9292 19.4502 39.9255 19.9714C39.8935 20.1931 39.7731 20.3258 39.5643 20.3695C38.9909 20.3715 38.4174 20.3734 37.8439 20.3753C38.546 20.8829 39.2482 21.3905 39.9503 21.8981C39.9679 21.9108 39.9835 21.9254 39.9972 21.9417C40.0043 21.966 39.9979 21.9844 39.9779 21.9969C39.7187 21.9979 39.4596 21.9989 39.2004 21.9998C38.9354 22.0008 38.6707 21.9979 38.4064 21.9911C37.3522 21.2288 36.2981 20.4664 35.244 19.704C35.244 20.4659 35.2403 21.2273 35.2329 21.9882C35.2288 21.9918 35.2242 21.9948 35.2192 21.9969C34.8534 22.0008 34.4876 22.0008 34.1218 21.9969C34.1152 21.9917 34.1106 21.9849 34.108 21.9766C34.1043 20.6592 34.1043 19.3418 34.108 18.0243C34.1158 18.0152 34.124 18.0075 34.1329 18.0011ZM35.2522 18.8264C36.4268 18.8254 37.6013 18.8264 38.7758 18.8293C38.7809 18.8315 38.7855 18.8344 38.7896 18.838C38.7933 19.0705 38.7933 19.303 38.7896 19.5355C38.7868 19.5384 38.7841 19.5413 38.7813 19.5442C37.6031 19.5481 36.4249 19.5481 35.2467 19.5442C35.2403 19.3092 35.2394 19.0738 35.244 18.838C35.2479 18.8349 35.2507 18.831 35.2522 18.8264Z" fill="#090505"/>
</svg>
