<svg width="120" height="120" viewBox="0 0 120 120" fill="none" xmlns="http://www.w3.org/2000/svg">
<path d="M69.144 70.4471C69.144 70.6652 69.2031 70.7841 69.3409 70.7841C69.4393 70.7841 69.518 70.7445 69.6165 70.685L105.13 47.4317C105.759 47.0154 106.33 46.7974 107.177 46.7974H114.992C116.193 46.7974 117 47.6101 117 48.8194V63.826C117 65.63 116.606 66.6806 114.992 67.652L105.523 73.3811C105.405 73.4604 105.287 73.5 105.208 73.5C105.09 73.5 104.992 73.4207 104.992 73.0837V55.5595C104.992 55.3612 104.933 55.2225 104.795 55.2225C104.696 55.2225 104.618 55.2621 104.519 55.3216L78.5538 72.3106C77.8254 72.7863 77.2348 72.9251 76.5655 72.9251H59.3405C58.1397 72.9251 57.3326 72.1123 57.3326 70.9031V49.2952C57.3326 49.1366 57.2538 48.9978 57.1357 48.9978C57.0373 48.9978 56.9586 49.0374 56.8601 49.0969L39.7336 59.4648C39.5564 59.5639 39.517 59.663 39.517 59.7423C39.517 59.8216 39.5367 59.8811 39.6745 60L51.8993 72.3106C52.0568 72.4692 52.1749 72.6079 52.1749 72.7269C52.1749 72.8656 51.9978 72.9449 51.7812 72.9449H40.7178C39.8517 72.9449 39.1823 72.8062 38.7099 72.3304L31.2884 64.8568C31.2096 64.7775 31.1506 64.7379 31.0718 64.7379C31.0128 64.7379 30.9143 64.7775 30.8356 64.8172L18.4336 72.3304C17.6855 72.7863 17.1737 72.9251 16.4257 72.9251H5.00794C3.80712 72.9251 3 72.1123 3 70.9031V56.174C3 54.3502 3.39372 53.3194 5.00794 52.348L14.5358 46.5793C14.6343 46.5198 14.713 46.5 14.7917 46.5C14.9295 46.5 15.0083 46.6586 15.0083 46.9758V66.6806C15.0083 66.8789 15.0673 66.978 15.2051 66.978C15.2839 66.978 15.3823 66.9185 15.4807 66.859L47.6669 47.3722C48.4346 46.9163 48.9071 46.7775 49.7929 46.7775H67.1164C68.3172 46.7775 69.1243 47.5903 69.1243 48.7996L69.144 70.4471Z" fill="#14191B"/>
</svg>
