<svg width="120" height="120" viewBox="0 0 120 120" fill="none" xmlns="http://www.w3.org/2000/svg">
<path d="M5.9379 56.1163L6.05044 61.7004C6.05079 61.7269 6.04469 61.7528 6.03295 61.7748C6.02121 61.7968 6.00439 61.8138 5.98475 61.8235C5.96511 61.8332 5.94358 61.8351 5.92304 61.8291C5.90249 61.823 5.88391 61.8092 5.86979 61.7895L3.03853 57.8353C3.02166 57.8119 3.01218 57.7815 3.01187 57.7499V54.0445C3.01145 54.0116 3.02097 53.9798 3.03853 53.9554L5.1442 51.0593C5.15407 51.0462 5.16602 51.0358 5.17927 51.0288C5.19253 51.0217 5.20681 51.0182 5.2212 51.0185L19.7092 51.0965C19.7358 51.0969 19.7613 51.1102 19.7803 51.1336L22.0074 53.9034C22.026 53.9272 22.0366 53.9591 22.037 53.9925L22.0755 59.5284C22.0758 59.5544 22.0699 59.5799 22.0585 59.6016C22.0472 59.6233 22.0309 59.6403 22.0117 59.6502C21.9926 59.6602 21.9715 59.6628 21.9512 59.6576C21.9309 59.6525 21.9123 59.6398 21.8978 59.6212L17.4347 53.8329C17.4252 53.8202 17.4137 53.81 17.401 53.803C17.3883 53.796 17.3746 53.7923 17.3607 53.792H7.64377C7.62987 53.7923 7.61616 53.796 7.60344 53.803C7.59072 53.81 7.57926 53.8202 7.56973 53.8329L5.96752 56.0272C5.94889 56.051 5.93828 56.0829 5.9379 56.1163Z" fill="black"/>
<path d="M43.5262 55.7562C43.5262 55.6819 43.4956 55.6448 43.4344 55.6448H41.2517C41.1905 55.6448 41.154 55.6832 41.1421 55.7599L39.3444 68.6101C39.3208 68.7834 39.2378 68.8676 39.0957 68.8626L38.2279 68.8144C38.1193 68.8094 38.0572 68.7389 38.0414 68.6027C37.8834 67.1918 37.6919 65.8082 37.4668 64.4517C37.3622 63.823 37.3592 63.1894 37.4579 62.5507C37.9969 59.0483 38.5577 55.276 39.1401 51.2339C39.1598 51.0829 39.2299 51.0074 39.3504 51.0074H44.237C44.2946 51.0074 44.3514 51.0229 44.4036 51.0531C44.4558 51.0832 44.502 51.1272 44.539 51.1819L46.4256 53.9072C46.4966 54.0062 46.5322 54.1225 46.5322 54.2562V68.7215C46.5322 68.9072 46.4581 69 46.3101 69H43.7276C43.5933 69 43.5262 68.9158 43.5262 68.7475V55.7562Z" fill="black"/>
<path d="M66.043 53.7921H56.3587C56.3447 53.7921 56.331 53.7958 56.3182 53.8028C56.3055 53.8098 56.2941 53.8201 56.2846 53.8329L54.7209 55.9864C54.7031 56.0106 54.6935 56.0426 54.6943 56.0755L54.7802 61.7302C54.7801 61.7556 54.774 61.7804 54.7626 61.8014C54.7511 61.8223 54.7349 61.8384 54.716 61.8477C54.6972 61.8569 54.6765 61.8588 54.6568 61.853C54.637 61.8473 54.6191 61.8343 54.6054 61.8156L51.706 57.828C51.6889 57.8047 51.6794 57.7742 51.6794 57.7426V54.0594C51.6794 54.0278 51.6889 53.9973 51.706 53.974L53.8739 51.0557C53.8833 51.0429 53.8948 51.0326 53.9075 51.0256C53.9203 51.0185 53.934 51.0149 53.948 51.0149L68.4182 51.1003C68.4449 51.1003 68.4704 51.1137 68.4893 51.1374L70.7105 53.9258C70.7293 53.9494 70.74 53.9814 70.7401 54.0149L70.7608 59.5545C70.7614 59.5802 70.7557 59.6055 70.7445 59.627C70.7333 59.6486 70.7171 59.6653 70.6981 59.675C70.6791 59.6847 70.6582 59.6869 70.6382 59.6813C70.6181 59.6757 70.6 59.6625 70.5861 59.6436L66.1141 53.8292C66.0953 53.8055 66.0697 53.7922 66.043 53.7921Z" fill="black"/>
<path d="M79.4972 66.0297L89.9871 66.026C90.0082 66.0265 90.0289 66.0187 90.0463 66.0037L92.2408 64.0359C92.2535 64.0244 92.2638 64.0093 92.271 63.9919C92.2782 63.9745 92.2821 63.9552 92.2823 63.9356L92.2793 54.1931C92.279 54.1744 92.2754 54.1561 92.2687 54.1394C92.2621 54.1227 92.2525 54.1081 92.2408 54.0965L89.3859 51.2265C89.3691 51.2104 89.3568 51.1881 89.3507 51.1627C89.3446 51.1373 89.345 51.1102 89.3518 51.0851C89.3587 51.0601 89.3717 51.0384 89.389 51.0231C89.4063 51.0078 89.4269 50.9997 89.4481 51L92.4363 51.0111C92.4591 51.0119 92.481 51.0224 92.4985 51.0408L95.3238 53.9629C95.335 53.9748 95.344 53.9896 95.3501 54.0062C95.3562 54.0229 95.3594 54.0411 95.3594 54.0594L95.3623 65.8255C95.363 65.8584 95.3535 65.8904 95.3357 65.9146L93.1204 68.8478C93.111 68.8606 93.0995 68.8709 93.0868 68.8779C93.0741 68.885 93.0603 68.8886 93.0464 68.8886H76.3224C76.2957 68.8886 76.2701 68.8753 76.2512 68.8516C76.2323 68.828 76.2217 68.7959 76.2217 68.7624V51.1374C76.2217 51.1039 76.2323 51.0718 76.2512 51.0481C76.2701 51.0244 76.2957 51.0111 76.3224 51.0111H87.5675C87.5903 51.0119 87.6122 51.0224 87.6297 51.0408L90.2743 53.7401C90.2914 53.7564 90.3038 53.779 90.3098 53.8048C90.3159 53.8305 90.3152 53.858 90.308 53.8833C90.3007 53.9085 90.2872 53.9302 90.2694 53.9452C90.2517 53.9602 90.2306 53.9677 90.2092 53.9666L79.5001 53.9406C79.4734 53.9406 79.4478 53.9539 79.4289 53.9776C79.4101 54.0012 79.3994 54.0334 79.3994 54.0668L79.3965 65.9035C79.3965 65.9369 79.4071 65.9691 79.426 65.9927C79.4449 66.0164 79.4705 66.0297 79.4972 66.0297Z" fill="black"/>
<path d="M104.964 55.7227L101.789 68.7994C101.783 68.8233 101.772 68.8441 101.756 68.8588C101.74 68.8736 101.72 68.8814 101.7 68.8811L98.8424 68.8923C98.828 68.8925 98.8137 68.8884 98.8008 68.8804C98.7878 68.8724 98.7766 68.8607 98.7679 68.8462C98.7593 68.8318 98.7535 68.815 98.751 68.7971C98.7485 68.7793 98.7493 68.761 98.7535 68.7437L102.802 51.1596C102.808 51.1364 102.819 51.116 102.834 51.1013C102.85 51.0866 102.869 51.0784 102.888 51.0779L107.375 51.0037C107.394 51.0031 107.413 51.0104 107.429 51.0244C107.445 51.0385 107.457 51.0585 107.464 51.0816L108.737 55.4962C108.742 55.5137 108.744 55.5324 108.742 55.5509C108.741 55.5694 108.735 55.5871 108.727 55.6025C108.718 55.6178 108.707 55.6303 108.694 55.639C108.681 55.6477 108.666 55.6522 108.651 55.6522L105.053 55.641C105.033 55.6408 105.014 55.6486 104.998 55.6633C104.981 55.678 104.97 55.6989 104.964 55.7227Z" fill="black"/>
<path d="M111.779 51.1039L116.994 68.7103C117 68.7305 117.001 68.7521 116.999 68.7733C116.997 68.7945 116.99 68.8147 116.98 68.8321C116.971 68.8496 116.957 68.8638 116.942 68.8736C116.927 68.8835 116.91 68.8886 116.893 68.8885L113.84 68.8922C113.818 68.8926 113.797 68.8846 113.779 68.8693C113.761 68.854 113.747 68.8323 113.739 68.8069L108.515 51.1856C108.509 51.1652 108.506 51.1432 108.508 51.1215C108.511 51.0998 108.517 51.079 108.527 51.0611C108.537 51.0431 108.55 51.0285 108.565 51.0185C108.581 51.0085 108.598 51.0034 108.616 51.0036L111.678 51.0185C111.7 51.0182 111.721 51.0262 111.739 51.0414C111.757 51.0567 111.771 51.0785 111.779 51.1039Z" fill="black"/>
<path d="M30.1189 55.849L30.113 68.7215C30.113 68.8601 30.0577 68.9294 29.9472 68.9294H27.2048C27.0981 68.9294 27.0448 68.8638 27.0448 68.7327L27.0478 54.3676C27.0478 54.2413 27.0804 54.1287 27.1455 54.0297L29.0321 51.1931C29.0834 51.1163 29.1495 51.078 29.2305 51.078H34.5968C34.6229 51.0783 34.6481 51.0899 34.6681 51.1109C34.6881 51.1319 34.7016 51.1609 34.7064 51.1931C35.506 56.8911 36.3096 62.594 37.1171 68.302C37.1389 68.4579 37.1793 68.6052 37.2386 68.7438C37.2492 68.7698 37.2544 68.7989 37.2535 68.8282C37.2526 68.8574 37.2458 68.8859 37.2336 68.9109C37.2214 68.9359 37.2043 68.9565 37.1839 68.9708C37.1635 68.9851 37.1405 68.9926 37.1171 68.9926L34.3125 69C34.2178 69 34.1625 68.9406 34.1467 68.8218L32.4912 55.8341C32.4813 55.7624 32.4467 55.7265 32.3875 55.7265L30.2196 55.7228C30.1525 55.7228 30.1189 55.7648 30.1189 55.849Z" fill="black"/>
<path d="M7.57269 66.026H17.3429C17.3659 66.0265 17.3882 66.0159 17.4051 65.9963L19.0725 64.0247C19.0817 64.0144 19.089 64.0018 19.0941 63.9878C19.0992 63.9737 19.1019 63.9585 19.1021 63.943L19.0725 58.047C19.0721 58.0244 19.0772 58.0022 19.0871 57.9834C19.0971 57.9645 19.1113 57.9499 19.128 57.9415C19.1447 57.933 19.1631 57.9311 19.1807 57.936C19.1983 57.941 19.2142 57.9525 19.2265 57.969L22.111 61.5891C22.1278 61.6096 22.1374 61.6377 22.1377 61.667V65.7586C22.1374 65.788 22.1278 65.816 22.111 65.8366L19.7418 68.8552C19.7333 68.866 19.7232 68.8746 19.712 68.8803C19.7008 68.8861 19.6887 68.8889 19.6766 68.8886H5.40482C5.39272 68.8889 5.3807 68.8861 5.36949 68.8803C5.35829 68.8746 5.34814 68.866 5.33967 68.8552L3.04445 65.9517C3.02771 65.9311 3.01813 65.9031 3.0178 65.8737L3.00003 59.7809C2.99957 59.7578 3.00485 59.7351 3.01514 59.7159C3.02544 59.6968 3.04023 59.6821 3.05748 59.6739C3.07473 59.6658 3.09357 59.6645 3.1114 59.6704C3.12923 59.6763 3.14516 59.6889 3.15699 59.7067L7.50458 65.9888C7.51312 66.0008 7.52364 66.0103 7.53539 66.0167C7.54715 66.0232 7.55988 66.0263 7.57269 66.026Z" fill="black"/>
<path d="M67.8436 63.9209L67.8406 58.0991C67.8405 58.0762 67.8459 58.0539 67.8559 58.0348C67.866 58.0158 67.8804 58.0009 67.8972 57.9922C67.9141 57.9834 67.9326 57.9811 67.9505 57.9856C67.9683 57.9901 67.9847 58.0012 67.9976 58.0174L70.7755 61.578C70.7841 61.5888 70.7908 61.6015 70.7954 61.6156C70.7999 61.6296 70.8023 61.6446 70.8022 61.6597L70.8052 65.7736C70.8052 65.7887 70.8029 65.8037 70.7983 65.8178C70.7937 65.8318 70.787 65.8445 70.7785 65.8553L68.4774 68.8516C68.469 68.8629 68.459 68.872 68.4478 68.8784C68.4366 68.8848 68.4245 68.8883 68.4122 68.8887H54.0782C54.0661 68.8888 54.0541 68.8858 54.043 68.8801C54.0318 68.8744 54.0216 68.8659 54.013 68.8553L51.7149 65.9295C51.7064 65.9188 51.6996 65.906 51.695 65.892C51.6905 65.878 51.6881 65.863 51.6882 65.8478L51.6616 59.781C51.6607 59.7568 51.6659 59.7329 51.6765 59.7127C51.6871 59.6924 51.7025 59.6769 51.7205 59.6682C51.7386 59.6596 51.7583 59.6583 51.777 59.6646C51.7956 59.6708 51.8122 59.6843 51.8244 59.703L56.2283 65.9852C56.2367 65.9977 56.2471 66.0078 56.2589 66.0148C56.2706 66.0219 56.2834 66.0257 56.2964 66.0261H66.0696C66.0926 66.0263 66.1148 66.0157 66.1318 65.9964L67.814 64.0025C67.823 63.9921 67.8303 63.9795 67.8354 63.9655C67.8405 63.9514 67.8433 63.9363 67.8436 63.9209Z" fill="black"/>
</svg>
